<svg xmlns="http://www.w3.org/2000/svg" xmlns:xlink="http://www.w3.org/1999/xlink" viewBox="0 0 443.27 396.82"><defs><style>.cls-1{isolation:isolate;}.cls-2{mix-blend-mode:multiply;opacity:0.25;fill:url(#Degradado_sin_nombre_39);}.cls-3{fill:url(#Degradado_sin_nombre_39-2);}.cls-4{fill:url(#Degradado_sin_nombre_12);}.cls-5{fill:url(#Degradado_sin_nombre_14);}.cls-6{fill:#db2f8e;}.cls-7{fill:url(#Degradado_sin_nombre_16);}.cls-8{fill:url(#Degradado_sin_nombre_12-2);}.cls-9{fill:url(#Degradado_sin_nombre_14-2);}.cls-10{fill:#df64b0;}.cls-11{fill:#de5cad;}.cls-12{fill:#fff;}.cls-13{fill:url(#Degradado_sin_nombre_16-2);}.cls-14{fill:url(#Degradado_sin_nombre_12-3);}.cls-15{fill:url(#Degradado_sin_nombre_14-3);}.cls-16{fill:url(#Degradado_sin_nombre_20);}.cls-17{fill:url(#Degradado_sin_nombre_12-4);}.cls-18{fill:url(#Degradado_sin_nombre_22);}.cls-19{fill:url(#Degradado_sin_nombre_20-2);}.cls-20{fill:url(#Degradado_sin_nombre_20-3);}.cls-21{fill:#442f8e;}.cls-22{fill:#3b2774;}.cls-23{fill:#372269;}.cls-24{fill:#4626b1;}.cls-25{fill:#523fa8;}.cls-26{fill:#3b2d89;}.cls-27{fill:url(#Degradado_sin_nombre_30);}.cls-28{fill:url(#Degradado_sin_nombre_31);}.cls-29{fill:url(#Degradado_sin_nombre_35);}.cls-30{fill:url(#Degradado_sin_nombre_20-4);}.cls-31{fill:url(#Degradado_sin_nombre_34);}.cls-32{fill:url(#Degradado_sin_nombre_14-4);}.cls-33{fill:url(#Degradado_sin_nombre_35-2);}.cls-34{fill:url(#Degradado_sin_nombre_20-5);}.cls-35{fill:url(#Degradado_sin_nombre_34-2);}.cls-36{fill:url(#Degradado_sin_nombre_14-5);}.cls-37{fill:url(#Degradado_sin_nombre_33);}.cls-38{fill:url(#Degradado_sin_nombre_30-2);}.cls-39{fill:url(#Degradado_sin_nombre_31-2);}.cls-40{fill:#9350c3;}.cls-41{fill:#5b2a83;}.cls-42{fill:#46216b;}.cls-43{fill:url(#Degradado_sin_nombre_30-3);}.cls-44{fill:url(#Degradado_sin_nombre_31-3);}.cls-45{fill:url(#Degradado_sin_nombre_33-2);}.cls-46{fill:url(#Degradado_sin_nombre_30-4);}.cls-47{fill:url(#Degradado_sin_nombre_31-4);}.cls-48{fill:url(#Degradado_sin_nombre_30-5);}.cls-49{fill:url(#Degradado_sin_nombre_31-5);}.cls-50{fill:url(#Degradado_sin_nombre_20-6);}.cls-51{fill:url(#Degradado_sin_nombre_20-7);}.cls-52{fill:url(#Degradado_sin_nombre_20-8);}.cls-53{fill:url(#Degradado_sin_nombre_20-9);}.cls-54{fill:url(#Degradado_sin_nombre_20-10);}.cls-55{fill:url(#Degradado_sin_nombre_20-11);}.cls-56{fill:url(#Degradado_sin_nombre_20-12);}.cls-57{fill:url(#Degradado_sin_nombre_20-13);}.cls-58{fill:url(#Degradado_sin_nombre_14-6);}.cls-59{fill:url(#Degradado_sin_nombre_12-5);}.cls-60{fill:url(#Degradado_sin_nombre_14-7);}.cls-61{fill:url(#Degradado_sin_nombre_12-6);}.cls-62{fill:url(#Degradado_sin_nombre_20-14);}.cls-63{fill:url(#Degradado_sin_nombre_20-15);}.cls-64{fill:url(#Degradado_sin_nombre_20-16);}.cls-65{fill:url(#Degradado_sin_nombre_20-17);}.cls-66{fill:url(#Degradado_sin_nombre_20-18);}.cls-67{fill:url(#Degradado_sin_nombre_20-19);}.cls-68{fill:url(#Degradado_sin_nombre_20-20);}.cls-69{fill:url(#Degradado_sin_nombre_20-21);}.cls-70{fill:url(#Degradado_sin_nombre_20-22);}.cls-71{fill:url(#Degradado_sin_nombre_20-23);}.cls-72{fill:url(#Degradado_sin_nombre_20-24);}.cls-73{fill:url(#Degradado_sin_nombre_20-25);}.cls-74{fill:url(#Degradado_sin_nombre_20-26);}.cls-75{fill:url(#Degradado_sin_nombre_20-27);}.cls-76{fill:url(#Degradado_sin_nombre_20-28);}.cls-77{fill:url(#Degradado_sin_nombre_20-29);}.cls-78{fill:url(#Degradado_sin_nombre_20-30);}.cls-79{fill:url(#Degradado_sin_nombre_20-31);}.cls-80{fill:url(#Degradado_sin_nombre_16-3);}.cls-81{fill:url(#Degradado_sin_nombre_12-7);}.cls-82{fill:url(#Degradado_sin_nombre_14-8);}.cls-83{fill:url(#Degradado_sin_nombre_16-4);}.cls-84{fill:url(#Degradado_sin_nombre_12-8);}.cls-85{fill:url(#Degradado_sin_nombre_14-9);}.cls-86{fill:url(#Degradado_sin_nombre_20-32);}.cls-87{fill:url(#Degradado_sin_nombre_20-33);}.cls-88{fill:url(#Degradado_sin_nombre_20-34);}.cls-89{fill:url(#Degradado_sin_nombre_16-5);}.cls-90{fill:url(#Degradado_sin_nombre_12-9);}.cls-91{fill:url(#Degradado_sin_nombre_14-10);}.cls-92{fill:url(#Degradado_sin_nombre_20-35);}.cls-93{fill:url(#Degradado_sin_nombre_20-36);}.cls-94{fill:url(#Degradado_sin_nombre_20-37);}.cls-95{fill:url(#Degradado_sin_nombre_16-6);}.cls-96{fill:url(#Degradado_sin_nombre_12-10);}.cls-97{fill:url(#Degradado_sin_nombre_14-11);}.cls-98{fill:url(#Degradado_sin_nombre_20-38);}.cls-99{fill:url(#Degradado_sin_nombre_20-39);}.cls-100{fill:url(#Degradado_sin_nombre_20-40);}.cls-101{fill:url(#Degradado_sin_nombre_16-7);}.cls-102{fill:url(#Degradado_sin_nombre_12-11);}.cls-103{fill:url(#Degradado_sin_nombre_14-12);}.cls-104{fill:url(#Degradado_sin_nombre_20-41);}.cls-105{fill:url(#Degradado_sin_nombre_20-42);}.cls-106{fill:url(#Degradado_sin_nombre_20-43);}.cls-107{fill:url(#Degradado_sin_nombre_16-8);}.cls-108{fill:url(#Degradado_sin_nombre_12-12);}.cls-109{fill:url(#Degradado_sin_nombre_14-13);}.cls-110{fill:url(#Degradado_sin_nombre_20-44);}.cls-111{fill:url(#Degradado_sin_nombre_20-45);}.cls-112{fill:url(#Degradado_sin_nombre_20-46);}.cls-113{fill:url(#Degradado_sin_nombre_16-9);}.cls-114{fill:url(#Degradado_sin_nombre_12-13);}.cls-115{fill:url(#Degradado_sin_nombre_14-14);}.cls-116{fill:#3d1b64;}.cls-117{fill:#de5fef;}.cls-118{fill:#db30f9;}.cls-119{fill:url(#Degradado_sin_nombre_20-47);}.cls-120{fill:url(#Degradado_sin_nombre_12-14);}.cls-121{fill:url(#Degradado_sin_nombre_22-2);}.cls-122{fill:url(#Degradado_sin_nombre_20-48);}.cls-123{fill:url(#Degradado_sin_nombre_20-49);}.cls-124{fill:url(#Degradado_sin_nombre_20-50);}.cls-125{fill:url(#Degradado_sin_nombre_12-15);}.cls-126{fill:url(#Degradado_sin_nombre_22-3);}.cls-127{fill:url(#Degradado_sin_nombre_20-51);}.cls-128{fill:url(#Degradado_sin_nombre_20-52);}.cls-129{fill:url(#Degradado_sin_nombre_16-10);}.cls-130{fill:url(#Degradado_sin_nombre_12-16);}.cls-131{fill:url(#Degradado_sin_nombre_14-15);}.cls-132{fill:url(#Degradado_sin_nombre_16-11);}.cls-133{fill:url(#Degradado_sin_nombre_12-17);}.cls-134{fill:url(#Degradado_sin_nombre_14-16);}.cls-135{fill:url(#Degradado_sin_nombre_53);}.cls-136{fill:url(#Degradado_sin_nombre_53-2);}.cls-137{fill:url(#Degradado_sin_nombre_53-3);}.cls-138{fill:url(#Degradado_sin_nombre_57);}.cls-139{fill:url(#Degradado_sin_nombre_53-4);}.cls-140{fill:url(#Degradado_sin_nombre_53-5);}.cls-141{fill:url(#Degradado_sin_nombre_53-6);}.cls-142{fill:url(#Degradado_sin_nombre_57-2);}.cls-143{fill:url(#Degradado_sin_nombre_53-7);}.cls-144{fill:url(#Degradado_sin_nombre_53-8);}.cls-145{fill:url(#Degradado_sin_nombre_53-9);}.cls-146{fill:url(#Degradado_sin_nombre_57-3);}.cls-147{fill:url(#Degradado_sin_nombre_53-10);}.cls-148{fill:url(#Degradado_sin_nombre_53-11);}.cls-149{fill:url(#Degradado_sin_nombre_53-12);}.cls-150{fill:url(#Degradado_sin_nombre_57-4);}.cls-151{fill:url(#Degradado_sin_nombre_53-13);}.cls-152{fill:url(#Degradado_sin_nombre_53-14);}.cls-153{fill:url(#Degradado_sin_nombre_53-15);}.cls-154{fill:url(#Degradado_sin_nombre_57-5);}.cls-155{fill:url(#Degradado_sin_nombre_53-16);}.cls-156{fill:url(#Degradado_sin_nombre_53-17);}.cls-157{fill:url(#Degradado_sin_nombre_53-18);}.cls-158{fill:url(#Degradado_sin_nombre_57-6);}.cls-159{fill:url(#Degradado_sin_nombre_53-19);}.cls-160{fill:url(#Degradado_sin_nombre_53-20);}.cls-161{fill:url(#Degradado_sin_nombre_53-21);}.cls-162{fill:url(#Degradado_sin_nombre_57-7);}.cls-163{fill:url(#Degradado_sin_nombre_53-22);}.cls-164{fill:url(#Degradado_sin_nombre_53-23);}.cls-165{fill:url(#Degradado_sin_nombre_53-24);}.cls-166{fill:url(#Degradado_sin_nombre_57-8);}</style><linearGradient id="Degradado_sin_nombre_39" y1="268.86" x2="443.27" y2="268.86" gradientUnits="userSpaceOnUse"><stop offset="0" stop-color="#642496"/><stop offset="0.24" stop-color="#582995"/><stop offset="1" stop-color="#373794"/></linearGradient><linearGradient id="Degradado_sin_nombre_39-2" y1="244.86" x2="443.27" y2="244.86" xlink:href="#Degradado_sin_nombre_39"/><linearGradient id="Degradado_sin_nombre_12" x1="220.96" y1="311.47" x2="443.27" y2="311.47" gradientUnits="userSpaceOnUse"><stop offset="0" stop-color="#3b2d8a"/><stop offset="0.42" stop-color="#5c2da4"/><stop offset="1" stop-color="#912ecd"/></linearGradient><linearGradient id="Degradado_sin_nombre_14" y1="311.91" x2="220.96" y2="311.91" gradientUnits="userSpaceOnUse"><stop offset="0" stop-color="#7c27b4"/><stop offset="0.38" stop-color="#652db9"/><stop offset="1" stop-color="#4435c0"/></linearGradient><linearGradient id="Degradado_sin_nombre_16" x1="182.3" y1="120.19" x2="250.38" y2="120.19" gradientUnits="userSpaceOnUse"><stop offset="0" stop-color="#642496"/><stop offset="0.09" stop-color="#61269a"/><stop offset="1" stop-color="#4533bb"/></linearGradient><linearGradient id="Degradado_sin_nombre_12-2" x1="216.34" y1="135.92" x2="243.57" y2="183.08" xlink:href="#Degradado_sin_nombre_12"/><linearGradient id="Degradado_sin_nombre_14-2" x1="182.3" y1="187.01" x2="209.53" y2="139.85" xlink:href="#Degradado_sin_nombre_14"/><linearGradient id="Degradado_sin_nombre_16-2" x1="189.6" y1="71.2" x2="243.07" y2="71.2" xlink:href="#Degradado_sin_nombre_16"/><linearGradient id="Degradado_sin_nombre_12-3" x1="216.34" y1="83.55" x2="237.73" y2="120.6" xlink:href="#Degradado_sin_nombre_12"/><linearGradient id="Degradado_sin_nombre_14-3" x1="189.6" y1="123.69" x2="210.99" y2="86.64" xlink:href="#Degradado_sin_nombre_14"/><linearGradient id="Degradado_sin_nombre_20" x1="194.94" y1="65.21" x2="237.73" y2="65.21" gradientUnits="userSpaceOnUse"><stop offset="0" stop-color="#fcf84a"/><stop offset="0.68" stop-color="#eaa53c"/><stop offset="1" stop-color="#e38437"/></linearGradient><linearGradient id="Degradado_sin_nombre_12-4" x1="198.33" y1="65.21" x2="234.34" y2="65.21" xlink:href="#Degradado_sin_nombre_12"/><linearGradient id="Degradado_sin_nombre_22" x1="198.33" y1="61.48" x2="234.34" y2="61.48" gradientUnits="userSpaceOnUse"><stop offset="0" stop-color="#2a226b"/><stop offset="0.62" stop-color="#4b2080"/><stop offset="1" stop-color="#621e8e"/></linearGradient><linearGradient id="Degradado_sin_nombre_20-2" x1="212.06" y1="73.06" x2="237.73" y2="73.06" xlink:href="#Degradado_sin_nombre_20"/><linearGradient id="Degradado_sin_nombre_20-3" x1="197.96" y1="78.72" x2="209.04" y2="72.33" xlink:href="#Degradado_sin_nombre_20"/><linearGradient id="Degradado_sin_nombre_30" x1="203.12" y1="237.65" x2="203.12" y2="142.92" gradientUnits="userSpaceOnUse"><stop offset="0" stop-color="#642b9b"/><stop offset="0.02" stop-color="#632b9a"/><stop offset="1" stop-color="#451e79"/></linearGradient><linearGradient id="Degradado_sin_nombre_31" x1="179.68" y1="237.65" x2="179.68" y2="142.92" gradientUnits="userSpaceOnUse"><stop offset="0" stop-color="#5b2a84"/><stop offset="0.3" stop-color="#4d2474"/><stop offset="1" stop-color="#301653"/></linearGradient><linearGradient id="Degradado_sin_nombre_35" x1="165.26" y1="127.61" x2="217.54" y2="127.61" gradientUnits="userSpaceOnUse"><stop offset="0" stop-color="#7c27b4"/><stop offset="0.49" stop-color="#6839d8"/><stop offset="1" stop-color="#5549f9"/></linearGradient><linearGradient id="Degradado_sin_nombre_20-4" x1="169.33" y1="127.61" x2="213.46" y2="127.61" xlink:href="#Degradado_sin_nombre_20"/><linearGradient id="Degradado_sin_nombre_34" x1="204.47" y1="159.79" x2="204.47" y2="127.61" gradientUnits="userSpaceOnUse"><stop offset="0" stop-color="#912ecd"/><stop offset="0.58" stop-color="#5c2da4"/><stop offset="1" stop-color="#3b2d8a"/></linearGradient><linearGradient id="Degradado_sin_nombre_14-4" x1="178.33" y1="159.79" x2="178.33" y2="127.61" xlink:href="#Degradado_sin_nombre_14"/><linearGradient id="Degradado_sin_nombre_35-2" x1="178.33" y1="120.07" x2="204.47" y2="120.07" xlink:href="#Degradado_sin_nombre_35"/><linearGradient id="Degradado_sin_nombre_20-5" x1="180.37" y1="120.07" x2="202.43" y2="120.07" xlink:href="#Degradado_sin_nombre_20"/><linearGradient id="Degradado_sin_nombre_34-2" x1="197.93" y1="136.15" x2="197.93" y2="120.07" xlink:href="#Degradado_sin_nombre_34"/><linearGradient id="Degradado_sin_nombre_14-5" x1="184.86" y1="136.15" x2="184.86" y2="120.07" xlink:href="#Degradado_sin_nombre_14"/><linearGradient id="Degradado_sin_nombre_33" x1="237.65" y1="208.33" x2="329.51" y2="208.33" gradientUnits="userSpaceOnUse"><stop offset="0" stop-color="#7c3ec0"/><stop offset="1" stop-color="#6633b6"/></linearGradient><linearGradient id="Degradado_sin_nombre_30-2" x1="300.81" y1="240.38" x2="300.81" y2="201.7" xlink:href="#Degradado_sin_nombre_30"/><linearGradient id="Degradado_sin_nombre_31-2" x1="254.87" y1="240.38" x2="254.87" y2="214.96" xlink:href="#Degradado_sin_nombre_31"/><linearGradient id="Degradado_sin_nombre_30-3" x1="298.41" y1="231.57" x2="298.41" y2="145.93" xlink:href="#Degradado_sin_nombre_30"/><linearGradient id="Degradado_sin_nombre_31-3" x1="258.86" y1="231.57" x2="258.86" y2="157.35" xlink:href="#Degradado_sin_nombre_31"/><linearGradient id="Degradado_sin_nombre_33-2" x1="237.65" y1="147.08" x2="329.51" y2="147.08" xlink:href="#Degradado_sin_nombre_33"/><linearGradient id="Degradado_sin_nombre_30-4" x1="300.81" y1="179.12" x2="300.81" y2="140.45" xlink:href="#Degradado_sin_nombre_30"/><linearGradient id="Degradado_sin_nombre_31-4" x1="254.87" y1="179.12" x2="254.87" y2="153.71" xlink:href="#Degradado_sin_nombre_31"/><linearGradient id="Degradado_sin_nombre_30-5" x1="298.41" y1="170.32" x2="298.41" y2="84.67" xlink:href="#Degradado_sin_nombre_30"/><linearGradient id="Degradado_sin_nombre_31-5" x1="258.86" y1="170.32" x2="258.86" y2="96.09" xlink:href="#Degradado_sin_nombre_31"/><linearGradient id="Degradado_sin_nombre_20-6" x1="298.41" y1="119.84" x2="298.41" y2="89.07" xlink:href="#Degradado_sin_nombre_20"/><linearGradient id="Degradado_sin_nombre_20-7" x1="258.86" y1="119.84" x2="258.86" y2="100.49" xlink:href="#Degradado_sin_nombre_20"/><linearGradient id="Degradado_sin_nombre_20-8" x1="298.41" y1="125.55" x2="298.41" y2="94.78" xlink:href="#Degradado_sin_nombre_20"/><linearGradient id="Degradado_sin_nombre_20-9" x1="258.86" y1="125.55" x2="258.86" y2="106.2" xlink:href="#Degradado_sin_nombre_20"/><linearGradient id="Degradado_sin_nombre_20-10" x1="298.41" y1="185.19" x2="298.41" y2="154.41" xlink:href="#Degradado_sin_nombre_20"/><linearGradient id="Degradado_sin_nombre_20-11" x1="258.86" y1="185.19" x2="258.86" y2="165.83" xlink:href="#Degradado_sin_nombre_20"/><linearGradient id="Degradado_sin_nombre_20-12" x1="298.41" y1="190.89" x2="298.41" y2="160.12" xlink:href="#Degradado_sin_nombre_20"/><linearGradient id="Degradado_sin_nombre_20-13" x1="258.86" y1="190.89" x2="258.86" y2="171.54" xlink:href="#Degradado_sin_nombre_20"/><linearGradient id="Degradado_sin_nombre_14-6" x1="113.58" y1="195.69" x2="169.54" y2="195.69" xlink:href="#Degradado_sin_nombre_14"/><linearGradient id="Degradado_sin_nombre_12-5" x1="113.58" y1="124.74" x2="169.54" y2="124.74" xlink:href="#Degradado_sin_nombre_12"/><linearGradient id="Degradado_sin_nombre_14-7" x1="120.97" y1="128.97" x2="162.16" y2="128.97" xlink:href="#Degradado_sin_nombre_14"/><linearGradient id="Degradado_sin_nombre_12-6" x1="120.97" y1="119.29" x2="162.16" y2="119.29" xlink:href="#Degradado_sin_nombre_12"/><linearGradient id="Degradado_sin_nombre_20-14" x1="113.58" y1="251.78" x2="169.54" y2="251.78" xlink:href="#Degradado_sin_nombre_20"/><linearGradient id="Degradado_sin_nombre_20-15" x1="113.58" y1="243.91" x2="169.54" y2="243.91" xlink:href="#Degradado_sin_nombre_20"/><linearGradient id="Degradado_sin_nombre_20-16" x1="113.58" y1="236.03" x2="169.54" y2="236.03" xlink:href="#Degradado_sin_nombre_20"/><linearGradient id="Degradado_sin_nombre_20-17" x1="113.58" y1="228.16" x2="169.54" y2="228.16" xlink:href="#Degradado_sin_nombre_20"/><linearGradient id="Degradado_sin_nombre_20-18" x1="113.58" y1="220.29" x2="169.54" y2="220.29" xlink:href="#Degradado_sin_nombre_20"/><linearGradient id="Degradado_sin_nombre_20-19" x1="113.58" y1="212.41" x2="169.54" y2="212.41" xlink:href="#Degradado_sin_nombre_20"/><linearGradient id="Degradado_sin_nombre_20-20" x1="113.58" y1="204.54" x2="169.54" y2="204.54" xlink:href="#Degradado_sin_nombre_20"/><linearGradient id="Degradado_sin_nombre_20-21" x1="113.58" y1="196.67" x2="169.54" y2="196.67" xlink:href="#Degradado_sin_nombre_20"/><linearGradient id="Degradado_sin_nombre_20-22" x1="113.58" y1="188.79" x2="169.54" y2="188.79" xlink:href="#Degradado_sin_nombre_20"/><linearGradient id="Degradado_sin_nombre_20-23" x1="113.58" y1="180.92" x2="169.54" y2="180.92" xlink:href="#Degradado_sin_nombre_20"/><linearGradient id="Degradado_sin_nombre_20-24" x1="113.58" y1="173.05" x2="169.54" y2="173.05" xlink:href="#Degradado_sin_nombre_20"/><linearGradient id="Degradado_sin_nombre_20-25" x1="113.58" y1="165.17" x2="169.54" y2="165.17" xlink:href="#Degradado_sin_nombre_20"/><linearGradient id="Degradado_sin_nombre_20-26" x1="113.58" y1="157.3" x2="169.54" y2="157.3" xlink:href="#Degradado_sin_nombre_20"/><linearGradient id="Degradado_sin_nombre_20-27" x1="113.58" y1="149.42" x2="169.54" y2="149.42" xlink:href="#Degradado_sin_nombre_20"/><linearGradient id="Degradado_sin_nombre_20-28" x1="113.58" y1="141.55" x2="169.54" y2="141.55" xlink:href="#Degradado_sin_nombre_20"/><linearGradient id="Degradado_sin_nombre_20-29" x1="303.4" y1="244.07" x2="382.01" y2="244.07" xlink:href="#Degradado_sin_nombre_20"/><linearGradient id="Degradado_sin_nombre_20-30" x1="334.84" y1="256.32" x2="382.01" y2="256.32" xlink:href="#Degradado_sin_nombre_20"/><linearGradient id="Degradado_sin_nombre_20-31" x1="309.89" y1="266.19" x2="328.35" y2="255.53" xlink:href="#Degradado_sin_nombre_20"/><linearGradient id="Degradado_sin_nombre_16-3" x1="305.11" y1="235.2" x2="380.3" y2="235.2" xlink:href="#Degradado_sin_nombre_16"/><linearGradient id="Degradado_sin_nombre_12-7" x1="335.18" y1="248.21" x2="380.3" y2="248.21" xlink:href="#Degradado_sin_nombre_12"/><linearGradient id="Degradado_sin_nombre_14-8" x1="320.15" y1="265.55" x2="320.15" y2="239.54" xlink:href="#Degradado_sin_nombre_14"/><linearGradient id="Degradado_sin_nombre_16-4" x1="308.66" y1="171.69" x2="376.74" y2="171.69" xlink:href="#Degradado_sin_nombre_16"/><linearGradient id="Degradado_sin_nombre_12-8" x1="342.7" y1="187.41" x2="369.93" y2="234.58" xlink:href="#Degradado_sin_nombre_12"/><linearGradient id="Degradado_sin_nombre_14-9" x1="308.66" y1="238.51" x2="335.89" y2="191.34" xlink:href="#Degradado_sin_nombre_14"/><linearGradient id="Degradado_sin_nombre_20-32" x1="312.91" y1="166.54" x2="372.49" y2="166.54" xlink:href="#Degradado_sin_nombre_20"/><linearGradient id="Degradado_sin_nombre_20-33" x1="336.74" y1="175.82" x2="372.49" y2="175.82" xlink:href="#Degradado_sin_nombre_20"/><linearGradient id="Degradado_sin_nombre_20-34" x1="317.83" y1="183.31" x2="331.83" y2="175.22" xlink:href="#Degradado_sin_nombre_20"/><linearGradient id="Degradado_sin_nombre_16-5" x1="314.21" y1="159.82" x2="371.2" y2="159.82" xlink:href="#Degradado_sin_nombre_16"/><linearGradient id="Degradado_sin_nombre_12-9" x1="337" y1="169.68" x2="371.2" y2="169.68" xlink:href="#Degradado_sin_nombre_12"/><linearGradient id="Degradado_sin_nombre_14-10" x1="325.61" y1="182.82" x2="325.61" y2="163.11" xlink:href="#Degradado_sin_nombre_14"/><linearGradient id="Degradado_sin_nombre_20-35" x1="312.91" y1="155.45" x2="372.49" y2="155.45" xlink:href="#Degradado_sin_nombre_20"/><linearGradient id="Degradado_sin_nombre_20-36" x1="336.74" y1="164.73" x2="372.49" y2="164.73" xlink:href="#Degradado_sin_nombre_20"/><linearGradient id="Degradado_sin_nombre_20-37" x1="317.83" y1="172.21" x2="331.83" y2="164.13" xlink:href="#Degradado_sin_nombre_20"/><linearGradient id="Degradado_sin_nombre_16-6" x1="314.21" y1="148.73" x2="371.2" y2="148.73" xlink:href="#Degradado_sin_nombre_16"/><linearGradient id="Degradado_sin_nombre_12-10" x1="337" y1="158.59" x2="371.2" y2="158.59" xlink:href="#Degradado_sin_nombre_12"/><linearGradient id="Degradado_sin_nombre_14-11" x1="325.61" y1="171.73" x2="325.61" y2="152.02" xlink:href="#Degradado_sin_nombre_14"/><linearGradient id="Degradado_sin_nombre_20-38" x1="312.91" y1="144.36" x2="372.49" y2="144.36" xlink:href="#Degradado_sin_nombre_20"/><linearGradient id="Degradado_sin_nombre_20-39" x1="336.74" y1="153.64" x2="372.49" y2="153.64" xlink:href="#Degradado_sin_nombre_20"/><linearGradient id="Degradado_sin_nombre_20-40" x1="317.83" y1="161.12" x2="331.83" y2="153.04" xlink:href="#Degradado_sin_nombre_20"/><linearGradient id="Degradado_sin_nombre_16-7" x1="314.21" y1="137.64" x2="371.2" y2="137.64" xlink:href="#Degradado_sin_nombre_16"/><linearGradient id="Degradado_sin_nombre_12-11" x1="337" y1="147.49" x2="371.2" y2="147.49" xlink:href="#Degradado_sin_nombre_12"/><linearGradient id="Degradado_sin_nombre_14-12" x1="325.61" y1="160.64" x2="325.61" y2="140.93" xlink:href="#Degradado_sin_nombre_14"/><linearGradient id="Degradado_sin_nombre_20-41" x1="312.91" y1="133.27" x2="372.49" y2="133.27" xlink:href="#Degradado_sin_nombre_20"/><linearGradient id="Degradado_sin_nombre_20-42" x1="336.74" y1="142.55" x2="372.49" y2="142.55" xlink:href="#Degradado_sin_nombre_20"/><linearGradient id="Degradado_sin_nombre_20-43" x1="317.83" y1="150.03" x2="331.83" y2="141.95" xlink:href="#Degradado_sin_nombre_20"/><linearGradient id="Degradado_sin_nombre_16-8" x1="314.21" y1="126.55" x2="371.2" y2="126.55" xlink:href="#Degradado_sin_nombre_16"/><linearGradient id="Degradado_sin_nombre_12-12" x1="337" y1="136.4" x2="371.2" y2="136.4" xlink:href="#Degradado_sin_nombre_12"/><linearGradient id="Degradado_sin_nombre_14-13" x1="325.61" y1="149.55" x2="325.61" y2="129.84" xlink:href="#Degradado_sin_nombre_14"/><linearGradient id="Degradado_sin_nombre_20-44" x1="312.91" y1="122.18" x2="372.49" y2="122.18" xlink:href="#Degradado_sin_nombre_20"/><linearGradient id="Degradado_sin_nombre_20-45" x1="336.74" y1="131.46" x2="372.49" y2="131.46" xlink:href="#Degradado_sin_nombre_20"/><linearGradient id="Degradado_sin_nombre_20-46" x1="317.83" y1="138.94" x2="331.83" y2="130.86" xlink:href="#Degradado_sin_nombre_20"/><linearGradient id="Degradado_sin_nombre_16-9" x1="314.21" y1="115.46" x2="371.2" y2="115.46" xlink:href="#Degradado_sin_nombre_16"/><linearGradient id="Degradado_sin_nombre_12-13" x1="337" y1="125.31" x2="371.2" y2="125.31" xlink:href="#Degradado_sin_nombre_12"/><linearGradient id="Degradado_sin_nombre_14-14" x1="325.61" y1="138.46" x2="325.61" y2="118.75" xlink:href="#Degradado_sin_nombre_14"/><linearGradient id="Degradado_sin_nombre_20-47" x1="258.01" y1="209.36" x2="273.38" y2="209.36" xlink:href="#Degradado_sin_nombre_20"/><linearGradient id="Degradado_sin_nombre_12-14" x1="259.23" y1="209.36" x2="272.16" y2="209.36" xlink:href="#Degradado_sin_nombre_12"/><linearGradient id="Degradado_sin_nombre_22-2" x1="259.23" y1="208.03" x2="272.16" y2="208.03" xlink:href="#Degradado_sin_nombre_22"/><linearGradient id="Degradado_sin_nombre_20-48" x1="264.16" y1="212.18" x2="273.38" y2="212.18" xlink:href="#Degradado_sin_nombre_20"/><linearGradient id="Degradado_sin_nombre_20-49" x1="259.09" y1="214.22" x2="263.07" y2="211.92" xlink:href="#Degradado_sin_nombre_20"/><linearGradient id="Degradado_sin_nombre_20-50" x1="264.96" y1="213.56" x2="280.34" y2="213.56" xlink:href="#Degradado_sin_nombre_20"/><linearGradient id="Degradado_sin_nombre_12-15" x1="266.18" y1="213.56" x2="279.12" y2="213.56" xlink:href="#Degradado_sin_nombre_12"/><linearGradient id="Degradado_sin_nombre_22-3" x1="266.18" y1="212.22" x2="279.12" y2="212.22" xlink:href="#Degradado_sin_nombre_22"/><linearGradient id="Degradado_sin_nombre_20-51" x1="271.11" y1="216.38" x2="280.34" y2="216.38" xlink:href="#Degradado_sin_nombre_20"/><linearGradient id="Degradado_sin_nombre_20-52" x1="266.05" y1="218.41" x2="270.03" y2="216.11" xlink:href="#Degradado_sin_nombre_20"/><linearGradient id="Degradado_sin_nombre_16-10" x1="144.65" y1="225.08" x2="212.73" y2="225.08" xlink:href="#Degradado_sin_nombre_16"/><linearGradient id="Degradado_sin_nombre_12-16" x1="178.69" y1="240.8" x2="205.93" y2="287.97" xlink:href="#Degradado_sin_nombre_12"/><linearGradient id="Degradado_sin_nombre_14-15" x1="144.65" y1="291.9" x2="171.89" y2="244.73" xlink:href="#Degradado_sin_nombre_14"/><linearGradient id="Degradado_sin_nombre_16-11" x1="149.6" y1="221.18" x2="207.78" y2="221.18" xlink:href="#Degradado_sin_nombre_16"/><linearGradient id="Degradado_sin_nombre_12-17" x1="172.88" y1="229.67" x2="207.78" y2="229.67" xlink:href="#Degradado_sin_nombre_12"/><linearGradient id="Degradado_sin_nombre_14-16" x1="149.6" y1="233.03" x2="172.88" y2="233.03" xlink:href="#Degradado_sin_nombre_14"/><linearGradient id="Degradado_sin_nombre_53" x1="101.85" y1="130.45" x2="101.86" y2="130.45" gradientUnits="userSpaceOnUse"><stop offset="0" stop-color="#fff"/><stop offset="0.04" stop-color="#fff" stop-opacity="0.82"/><stop offset="0.09" stop-color="#fff" stop-opacity="0.63"/><stop offset="0.15" stop-color="#fff" stop-opacity="0.46"/><stop offset="0.2" stop-color="#fff" stop-opacity="0.32"/><stop offset="0.26" stop-color="#fff" stop-opacity="0.2"/><stop offset="0.32" stop-color="#fff" stop-opacity="0.11"/><stop offset="0.38" stop-color="#fff" stop-opacity="0.05"/><stop offset="0.46" stop-color="#fff" stop-opacity="0.01"/><stop offset="0.56" stop-color="#fff" stop-opacity="0"/><stop offset="0.61" stop-color="#fff" stop-opacity="0.02"/><stop offset="0.67" stop-color="#fff" stop-opacity="0.06"/><stop offset="0.72" stop-color="#fff" stop-opacity="0.14"/><stop offset="0.78" stop-color="#fff" stop-opacity="0.25"/><stop offset="0.83" stop-color="#fff" stop-opacity="0.39"/><stop offset="0.89" stop-color="#fff" stop-opacity="0.56"/><stop offset="0.94" stop-color="#fff" stop-opacity="0.76"/><stop offset="1" stop-color="#fff" stop-opacity="0.99"/><stop offset="1" stop-color="#fff"/></linearGradient><linearGradient id="Degradado_sin_nombre_53-2" x1="68.22" y1="130.45" x2="68.23" y2="130.45" xlink:href="#Degradado_sin_nombre_53"/><linearGradient id="Degradado_sin_nombre_53-3" x1="68.58" y1="143.86" x2="101.5" y2="143.86" xlink:href="#Degradado_sin_nombre_53"/><linearGradient id="Degradado_sin_nombre_57" x1="67.46" y1="127.71" x2="102.62" y2="127.71" gradientUnits="userSpaceOnUse"><stop offset="0" stop-color="#fff" stop-opacity="0.6"/><stop offset="0.04" stop-color="#fff" stop-opacity="0.56"/><stop offset="0.16" stop-color="#fff" stop-opacity="0.42"/><stop offset="0.3" stop-color="#fff" stop-opacity="0.3"/><stop offset="0.44" stop-color="#fff" stop-opacity="0.21"/><stop offset="0.59" stop-color="#fff" stop-opacity="0.15"/><stop offset="0.77" stop-color="#fff" stop-opacity="0.11"/><stop offset="1" stop-color="#fff" stop-opacity="0.1"/></linearGradient><linearGradient id="Degradado_sin_nombre_53-4" x1="159.28" y1="93.78" x2="159.28" y2="93.78" xlink:href="#Degradado_sin_nombre_53"/><linearGradient id="Degradado_sin_nombre_53-5" x1="125.64" y1="93.78" x2="125.65" y2="93.78" xlink:href="#Degradado_sin_nombre_53"/><linearGradient id="Degradado_sin_nombre_53-6" x1="126" y1="107.19" x2="158.92" y2="107.19" xlink:href="#Degradado_sin_nombre_53"/><linearGradient id="Degradado_sin_nombre_57-2" x1="124.88" y1="91.04" x2="160.04" y2="91.04" xlink:href="#Degradado_sin_nombre_57"/><linearGradient id="Degradado_sin_nombre_53-7" x1="235.34" y1="38.77" x2="235.34" y2="38.77" xlink:href="#Degradado_sin_nombre_53"/><linearGradient id="Degradado_sin_nombre_53-8" x1="201.71" y1="38.77" x2="201.71" y2="38.77" xlink:href="#Degradado_sin_nombre_53"/><linearGradient id="Degradado_sin_nombre_53-9" x1="202.06" y1="52.18" x2="234.99" y2="52.18" xlink:href="#Degradado_sin_nombre_53"/><linearGradient id="Degradado_sin_nombre_57-3" x1="200.94" y1="36.03" x2="236.11" y2="36.03" xlink:href="#Degradado_sin_nombre_57"/><linearGradient id="Degradado_sin_nombre_53-10" x1="301.29" y1="66.28" x2="301.3" y2="66.28" xlink:href="#Degradado_sin_nombre_53"/><linearGradient id="Degradado_sin_nombre_53-11" x1="267.66" y1="66.28" x2="267.66" y2="66.28" xlink:href="#Degradado_sin_nombre_53"/><linearGradient id="Degradado_sin_nombre_53-12" x1="268.01" y1="79.68" x2="300.94" y2="79.68" xlink:href="#Degradado_sin_nombre_53"/><linearGradient id="Degradado_sin_nombre_57-4" x1="266.89" y1="63.53" x2="302.06" y2="63.53" xlink:href="#Degradado_sin_nombre_57"/><linearGradient id="Degradado_sin_nombre_53-13" x1="360.53" y1="89.81" x2="360.54" y2="89.81" xlink:href="#Degradado_sin_nombre_53"/><linearGradient id="Degradado_sin_nombre_53-14" x1="326.9" y1="89.81" x2="326.9" y2="89.81" xlink:href="#Degradado_sin_nombre_53"/><linearGradient id="Degradado_sin_nombre_53-15" x1="327.25" y1="103.21" x2="360.18" y2="103.21" xlink:href="#Degradado_sin_nombre_53"/><linearGradient id="Degradado_sin_nombre_57-5" x1="326.13" y1="87.06" x2="361.3" y2="87.06" xlink:href="#Degradado_sin_nombre_57"/><linearGradient id="Degradado_sin_nombre_53-16" x1="277.9" y1="197.59" x2="277.9" y2="197.59" xlink:href="#Degradado_sin_nombre_53"/><linearGradient id="Degradado_sin_nombre_53-17" x1="244.26" y1="197.59" x2="244.27" y2="197.59" xlink:href="#Degradado_sin_nombre_53"/><linearGradient id="Degradado_sin_nombre_53-18" x1="244.62" y1="211" x2="277.55" y2="211" xlink:href="#Degradado_sin_nombre_53"/><linearGradient id="Degradado_sin_nombre_57-6" x1="243.5" y1="194.84" x2="278.67" y2="194.84" xlink:href="#Degradado_sin_nombre_57"/><linearGradient id="Degradado_sin_nombre_53-19" x1="197.14" y1="195.82" x2="197.15" y2="195.82" xlink:href="#Degradado_sin_nombre_53"/><linearGradient id="Degradado_sin_nombre_53-20" x1="163.51" y1="195.82" x2="163.51" y2="195.82" xlink:href="#Degradado_sin_nombre_53"/><linearGradient id="Degradado_sin_nombre_53-21" x1="163.86" y1="209.23" x2="196.79" y2="209.23" xlink:href="#Degradado_sin_nombre_53"/><linearGradient id="Degradado_sin_nombre_57-7" x1="162.74" y1="193.08" x2="197.91" y2="193.08" xlink:href="#Degradado_sin_nombre_57"/><linearGradient id="Degradado_sin_nombre_53-22" x1="208.21" y1="95.91" x2="208.22" y2="95.91" xlink:href="#Degradado_sin_nombre_53"/><linearGradient id="Degradado_sin_nombre_53-23" x1="174.58" y1="95.91" x2="174.58" y2="95.91" xlink:href="#Degradado_sin_nombre_53"/><linearGradient id="Degradado_sin_nombre_53-24" x1="174.93" y1="109.31" x2="207.86" y2="109.31" xlink:href="#Degradado_sin_nombre_53"/><linearGradient id="Degradado_sin_nombre_57-8" x1="173.81" y1="93.16" x2="208.98" y2="93.16" xlink:href="#Degradado_sin_nombre_57"/></defs><g class="cls-1"><g id="Layer_2" data-name="Layer 2"><g id="OBJECTS"><polygon class="cls-2" points="220.96 396.82 443.27 268.43 222.31 140.9 0 269.3 220.96 396.82"/><polygon class="cls-3" points="220.96 372.82 443.27 244.43 222.31 116.9 0 245.3 220.96 372.82"/><polygon class="cls-4" points="220.96 372.82 220.96 378.52 443.27 250.11 443.27 244.43 220.96 372.82"/><polygon class="cls-5" points="220.96 378.52 0 250.99 0 245.3 220.96 372.82 220.96 378.52"/><path class="cls-6" d="M221,135.08,407.31,242.67a2.09,2.09,0,0,1,0,3.62L232.65,347.13a23.41,23.41,0,0,1-23.39,0L34.62,246.3a2.09,2.09,0,0,1,0-3.62L221,135.08m0-6.73L31.7,237.63a7.92,7.92,0,0,0,0,13.71L206.35,352.18a29.25,29.25,0,0,0,29.22,0L410.23,251.34a7.92,7.92,0,0,0,0-13.71L221,128.35Z"/><polygon class="cls-7" points="182.3 124.13 223.14 100.54 250.38 116.26 209.53 139.85 182.3 124.13"/><polygon class="cls-8" points="209.53 139.85 209.53 202.74 250.38 179.15 250.38 116.26 209.53 139.85"/><polygon class="cls-9" points="209.53 202.74 182.3 187.01 182.3 124.13 209.53 139.85 209.53 202.74"/><polygon class="cls-10" points="209.53 200.53 209.53 202.74 250.38 179.15 250.38 176.94 209.53 200.53"/><polygon class="cls-6" points="209.53 202.74 182.3 187.01 182.3 184.81 209.53 200.53 209.53 202.74"/><polygon class="cls-11" points="246.58 127.48 214.53 145.95 214.53 142.78 246.58 124.32 246.58 127.48"/><polygon class="cls-11" points="246.58 134.83 214.53 153.3 214.53 150.13 246.58 131.66 246.58 134.83"/><polygon class="cls-12" points="246.58 142.18 214.53 160.65 214.53 157.48 246.58 139.01 246.58 142.18"/><polygon class="cls-11" points="246.58 149.53 214.53 167.99 214.53 164.82 246.58 146.36 246.58 149.53"/><polygon class="cls-11" points="246.58 156.88 214.53 175.34 214.53 172.17 246.58 153.71 246.58 156.88"/><polygon class="cls-11" points="246.58 164.22 214.53 182.69 214.53 179.52 246.58 161.06 246.58 164.22"/><polygon class="cls-11" points="246.58 172.33 214.53 190.8 214.53 187.63 246.58 169.16 246.58 172.33"/><polygon class="cls-11" points="186.51 135.62 204.52 145.95 204.52 142.78 186.51 132.45 186.51 135.62"/><polygon class="cls-11" points="186.51 142.96 204.52 153.3 204.52 150.13 186.51 139.8 186.51 142.96"/><polygon class="cls-11" points="186.51 150.31 204.52 160.65 204.52 157.48 186.51 147.14 186.51 150.31"/><polygon class="cls-11" points="186.51 157.66 204.52 167.99 204.52 164.82 186.51 154.49 186.51 157.66"/><polygon class="cls-11" points="186.51 165.01 204.52 175.34 204.52 172.17 186.51 161.84 186.51 165.01"/><polygon class="cls-12" points="186.51 172.35 204.52 182.69 204.52 179.52 186.51 169.19 186.51 172.35"/><polygon class="cls-11" points="186.51 180.46 204.52 190.8 204.52 187.63 186.51 177.3 186.51 180.46"/><polygon class="cls-13" points="189.6 74.29 221.68 55.77 243.07 68.11 210.99 86.64 189.6 74.29"/><polygon class="cls-14" points="210.99 86.64 210.99 136.04 243.07 117.51 243.07 68.11 210.99 86.64"/><polygon class="cls-15" points="210.99 136.04 189.6 123.69 189.6 74.29 210.99 86.64 210.99 136.04"/><polygon class="cls-11" points="240.09 76.93 214.92 91.43 214.92 88.94 240.09 74.44 240.09 76.93"/><polygon class="cls-12" points="240.09 82.7 214.92 97.2 214.92 94.72 240.09 80.21 240.09 82.7"/><polygon class="cls-11" points="240.09 88.47 214.92 102.97 214.92 100.49 240.09 85.98 240.09 88.47"/><polygon class="cls-11" points="240.09 94.24 214.92 108.75 214.92 106.26 240.09 91.75 240.09 94.24"/><polygon class="cls-11" points="240.09 100.01 214.92 114.52 214.92 112.03 240.09 97.53 240.09 100.01"/><polygon class="cls-12" points="240.09 105.79 214.92 120.29 214.92 117.8 240.09 103.3 240.09 105.79"/><polygon class="cls-11" points="240.09 112.15 214.92 126.66 214.92 124.17 240.09 109.67 240.09 112.15"/><polygon class="cls-11" points="192.91 83.31 207.06 91.43 207.06 88.94 192.91 80.83 192.91 83.31"/><polygon class="cls-11" points="192.91 89.09 207.06 97.2 207.06 94.72 192.91 86.6 192.91 89.09"/><polygon class="cls-11" points="192.91 94.86 207.06 102.97 207.06 100.49 192.91 92.37 192.91 94.86"/><polygon class="cls-12" points="192.91 100.63 207.06 108.75 207.06 106.26 192.91 98.14 192.91 100.63"/><polygon class="cls-11" points="192.91 106.4 207.06 114.52 207.06 112.03 192.91 103.91 192.91 106.4"/><polygon class="cls-11" points="192.91 112.17 207.06 120.29 207.06 117.8 192.91 109.69 192.91 112.17"/><polygon class="cls-11" points="192.91 118.54 207.06 126.66 207.06 124.17 192.91 116.05 192.91 118.54"/><polygon class="cls-16" points="194.94 67.68 220.62 52.86 237.73 62.74 212.06 77.56 194.94 67.68"/><polygon class="cls-17" points="198.33 67.29 219.94 54.82 234.34 63.13 212.74 75.6 198.33 67.29"/><polygon class="cls-18" points="219.94 56.55 232.84 63.99 234.34 63.13 219.94 54.82 198.33 67.29 199.83 68.15 219.94 56.55"/><polygon class="cls-19" points="212.06 77.56 212.06 83.37 237.73 68.55 237.73 62.74 212.06 77.56"/><polygon class="cls-20" points="212.06 83.37 194.94 73.49 194.94 67.68 212.06 77.56 212.06 83.37"/><polygon class="cls-21" points="64.94 168.16 86.11 155.94 107.28 168.16 86.11 180.39 64.94 168.16"/><polygon class="cls-22" points="86.11 180.39 86.11 253.73 107.28 241.51 107.28 168.16 86.11 180.39"/><polygon class="cls-23" points="86.11 253.73 64.94 241.51 64.94 168.16 86.11 180.39 86.11 253.73"/><polygon class="cls-10" points="86.11 252.69 86.11 255.27 107.28 243.04 107.28 240.47 86.11 252.69"/><polygon class="cls-6" points="86.11 255.27 64.94 243.04 64.94 240.47 86.11 252.69 86.11 255.27"/><polygon class="cls-24" points="91.32 184.43 88.93 185.8 88.93 180.4 91.32 179.02 91.32 184.43"/><polygon class="cls-6" points="95.82 181.85 93.42 183.22 93.42 177.82 95.82 176.44 95.82 181.85"/><polygon class="cls-24" points="100.31 179.27 97.92 180.65 97.92 175.24 100.31 173.86 100.31 179.27"/><polygon class="cls-6" points="104.81 176.69 102.41 178.07 102.41 172.66 104.81 171.29 104.81 176.69"/><polygon class="cls-6" points="91.32 192.97 88.93 194.35 88.93 188.94 91.32 187.57 91.32 192.97"/><polygon class="cls-12" points="95.82 190.39 93.42 191.77 93.42 186.36 95.82 184.99 95.82 190.39"/><polygon class="cls-6" points="100.31 187.82 97.92 189.19 97.92 183.78 100.31 182.41 100.31 187.82"/><polygon class="cls-6" points="104.81 185.24 102.41 186.61 102.41 181.21 104.81 179.83 104.81 185.24"/><polygon class="cls-6" points="91.32 201.52 88.93 202.89 88.93 197.49 91.32 196.11 91.32 201.52"/><polygon class="cls-24" points="95.82 198.94 93.42 200.31 93.42 194.91 95.82 193.53 95.82 198.94"/><polygon class="cls-24" points="100.31 196.36 97.92 197.74 97.92 192.33 100.31 190.96 100.31 196.36"/><polygon class="cls-6" points="104.81 193.78 102.41 195.16 102.41 189.75 104.81 188.38 104.81 193.78"/><polygon class="cls-24" points="91.32 210.06 88.93 211.44 88.93 206.03 91.32 204.66 91.32 210.06"/><polygon class="cls-6" points="95.82 207.49 93.42 208.86 93.42 203.45 95.82 202.08 95.82 207.49"/><polygon class="cls-6" points="100.31 204.91 97.92 206.28 97.92 200.88 100.31 199.5 100.31 204.91"/><polygon class="cls-6" points="104.81 202.33 102.41 203.7 102.41 198.3 104.81 196.92 104.81 202.33"/><polygon class="cls-6" points="91.32 218.61 88.93 219.98 88.93 214.58 91.32 213.2 91.32 218.61"/><polygon class="cls-24" points="95.82 216.03 93.42 217.41 93.42 212 95.82 210.63 95.82 216.03"/><polygon class="cls-6" points="100.31 213.45 97.92 214.83 97.92 209.42 100.31 208.05 100.31 213.45"/><polygon class="cls-12" points="104.81 210.88 102.41 212.25 102.41 206.84 104.81 205.47 104.81 210.88"/><polygon class="cls-6" points="91.32 227.15 88.93 228.53 88.93 223.12 91.32 221.75 91.32 227.15"/><polygon class="cls-6" points="95.82 224.58 93.42 225.95 93.42 220.55 95.82 219.17 95.82 224.58"/><polygon class="cls-24" points="100.31 222 97.92 223.37 97.92 217.97 100.31 216.59 100.31 222"/><polygon class="cls-6" points="104.81 219.42 102.41 220.8 102.41 215.39 104.81 214.02 104.81 219.42"/><polygon class="cls-6" points="91.32 235.7 88.93 237.07 88.93 231.67 91.32 230.29 91.32 235.7"/><polygon class="cls-24" points="95.82 233.12 93.42 234.5 93.42 229.09 95.82 227.72 95.82 233.12"/><polygon class="cls-6" points="100.31 230.54 97.92 231.92 97.92 226.51 100.31 225.14 100.31 230.54"/><polygon class="cls-6" points="104.81 227.97 102.41 229.34 102.41 223.94 104.81 222.56 104.81 227.97"/><polygon class="cls-24" points="91.32 244.25 88.93 245.62 88.93 240.22 91.32 238.84 91.32 244.25"/><polygon class="cls-6" points="95.82 241.67 93.42 243.04 93.42 237.64 95.82 236.26 95.82 241.67"/><polygon class="cls-24" points="100.31 239.09 97.92 240.47 97.92 235.06 100.31 233.69 100.31 239.09"/><polygon class="cls-6" points="104.81 236.51 102.41 237.89 102.41 232.48 104.81 231.11 104.81 236.51"/><polygon class="cls-6" points="80.9 184.43 83.3 185.8 83.3 180.4 80.9 179.02 80.9 184.43"/><polygon class="cls-24" points="76.4 181.85 78.8 183.22 78.8 177.82 76.4 176.44 76.4 181.85"/><polygon class="cls-24" points="71.91 179.27 74.31 180.65 74.31 175.24 71.91 173.86 71.91 179.27"/><polygon class="cls-24" points="67.42 176.69 69.81 178.07 69.81 172.66 67.42 171.29 67.42 176.69"/><polygon class="cls-6" points="80.9 192.97 83.3 194.35 83.3 188.94 80.9 187.57 80.9 192.97"/><polygon class="cls-6" points="76.4 190.39 78.8 191.77 78.8 186.36 76.4 184.99 76.4 190.39"/><polygon class="cls-24" points="71.91 187.82 74.31 189.19 74.31 183.78 71.91 182.41 71.91 187.82"/><polygon class="cls-12" points="67.42 185.24 69.81 186.61 69.81 181.21 67.42 179.83 67.42 185.24"/><polygon class="cls-6" points="80.9 201.52 83.3 202.89 83.3 197.49 80.9 196.11 80.9 201.52"/><polygon class="cls-24" points="76.4 198.94 78.8 200.31 78.8 194.91 76.4 193.53 76.4 198.94"/><polygon class="cls-24" points="71.91 196.36 74.31 197.74 74.31 192.33 71.91 190.96 71.91 196.36"/><polygon class="cls-6" points="67.42 193.78 69.81 195.16 69.81 189.75 67.42 188.38 67.42 193.78"/><polygon class="cls-6" points="80.9 210.06 83.3 211.44 83.3 206.03 80.9 204.66 80.9 210.06"/><polygon class="cls-24" points="76.4 207.49 78.8 208.86 78.8 203.45 76.4 202.08 76.4 207.49"/><polygon class="cls-6" points="71.91 204.91 74.31 206.28 74.31 200.88 71.91 199.5 71.91 204.91"/><polygon class="cls-6" points="67.42 202.33 69.81 203.7 69.81 198.3 67.42 196.92 67.42 202.33"/><polygon class="cls-6" points="80.9 218.61 83.3 219.98 83.3 214.58 80.9 213.2 80.9 218.61"/><polygon class="cls-24" points="76.4 216.03 78.8 217.41 78.8 212 76.4 210.63 76.4 216.03"/><polygon class="cls-24" points="71.91 213.45 74.31 214.83 74.31 209.42 71.91 208.05 71.91 213.45"/><polygon class="cls-24" points="67.42 210.88 69.81 212.25 69.81 206.84 67.42 205.47 67.42 210.88"/><polygon class="cls-6" points="80.9 227.15 83.3 228.53 83.3 223.12 80.9 221.75 80.9 227.15"/><polygon class="cls-12" points="76.4 224.58 78.8 225.95 78.8 220.55 76.4 219.17 76.4 224.58"/><polygon class="cls-24" points="71.91 222 74.31 223.37 74.31 217.97 71.91 216.59 71.91 222"/><polygon class="cls-6" points="67.42 219.42 69.81 220.8 69.81 215.39 67.42 214.02 67.42 219.42"/><polygon class="cls-6" points="80.9 235.7 83.3 237.07 83.3 231.67 80.9 230.29 80.9 235.7"/><polygon class="cls-24" points="76.4 233.12 78.8 234.5 78.8 229.09 76.4 227.72 76.4 233.12"/><polygon class="cls-6" points="71.91 230.54 74.31 231.92 74.31 226.51 71.91 225.14 71.91 230.54"/><polygon class="cls-6" points="67.42 227.97 69.81 229.34 69.81 223.94 67.42 222.56 67.42 227.97"/><polygon class="cls-6" points="80.9 244.25 83.3 245.62 83.3 240.22 80.9 238.84 80.9 244.25"/><polygon class="cls-24" points="76.4 241.67 78.8 243.04 78.8 237.64 76.4 236.26 76.4 241.67"/><polygon class="cls-12" points="71.91 239.09 74.31 240.47 74.31 235.06 71.91 233.69 71.91 239.09"/><polygon class="cls-6" points="67.42 236.51 69.81 237.89 69.81 232.48 67.42 231.11 67.42 236.51"/><polygon class="cls-21" points="62.5 154.34 86.11 140.71 109.72 154.34 86.11 167.97 62.5 154.34"/><polygon class="cls-25" points="66.18 154.34 86.11 142.83 106.04 154.34 86.11 165.85 66.18 154.34"/><polygon class="cls-26" points="86.11 144.78 104.36 155.31 106.04 154.34 86.11 142.83 66.18 154.34 67.86 155.31 86.11 144.78"/><polygon class="cls-22" points="86.11 167.97 86.11 183.4 109.72 169.77 109.72 154.34 86.11 167.97"/><polygon class="cls-23" points="86.11 183.4 62.5 169.77 62.5 154.34 86.11 167.97 86.11 183.4"/><polygon class="cls-10" points="86.11 182.72 86.11 183.93 109.72 170.29 109.72 169.09 86.11 182.72"/><polygon class="cls-6" points="86.11 183.93 62.5 170.29 62.5 169.09 86.11 182.72 86.11 183.93"/><polygon class="cls-10" points="86.11 167.97 86.11 169.18 109.72 155.55 109.72 154.34 86.11 167.97"/><polygon class="cls-6" points="86.11 169.18 62.5 155.55 62.5 154.34 86.11 167.97 86.11 169.18"/><polygon class="cls-21" points="167.96 142.92 191.4 129.38 214.84 142.92 191.4 156.45 167.96 142.92"/><polygon class="cls-27" points="191.4 156.45 191.4 237.65 214.84 224.12 214.84 142.92 191.4 156.45"/><polygon class="cls-28" points="191.4 237.65 167.96 224.12 167.96 142.92 191.4 156.45 191.4 237.65"/><polygon class="cls-10" points="191.4 236.5 191.4 239.35 214.84 225.82 214.84 222.97 191.4 236.5"/><polygon class="cls-6" points="191.4 239.35 167.96 225.82 167.96 222.97 191.4 236.5 191.4 239.35"/><polygon class="cls-6" points="195.81 230.41 194.52 231.16 194.52 161.2 195.81 160.45 195.81 230.41"/><polygon class="cls-6" points="198.25 229.02 196.95 229.76 196.95 159.8 198.25 159.05 198.25 229.02"/><polygon class="cls-6" points="200.69 227.62 199.39 228.37 199.39 158.4 200.69 157.66 200.69 227.62"/><polygon class="cls-6" points="203.12 226.22 201.82 226.97 201.82 157.01 203.12 156.26 203.12 226.22"/><polygon class="cls-6" points="205.4 224.93 204.1 225.67 204.1 155.71 205.4 154.96 205.4 224.93"/><polygon class="cls-6" points="207.84 223.53 206.54 224.28 206.54 154.31 207.84 153.57 207.84 223.53"/><polygon class="cls-6" points="210.27 222.13 208.97 222.88 208.97 152.92 210.27 152.17 210.27 222.13"/><polygon class="cls-6" points="212.71 220.74 211.41 221.48 211.41 151.52 212.71 150.77 212.71 220.74"/><polygon class="cls-6" points="186.98 230.41 188.28 231.16 188.28 161.2 186.98 160.45 186.98 230.41"/><polygon class="cls-6" points="184.55 229.02 185.85 229.76 185.85 159.8 184.55 159.05 184.55 229.02"/><polygon class="cls-6" points="182.11 227.62 183.41 228.37 183.41 158.4 182.11 157.66 182.11 227.62"/><polygon class="cls-6" points="179.68 226.22 180.98 226.97 180.98 157.01 179.68 156.26 179.68 226.22"/><polygon class="cls-6" points="177.4 224.93 178.69 225.67 178.69 155.71 177.4 154.96 177.4 224.93"/><polygon class="cls-6" points="174.96 223.53 176.26 224.28 176.26 154.31 174.96 153.57 174.96 223.53"/><polygon class="cls-6" points="172.53 222.13 173.82 222.88 173.82 152.92 172.53 152.17 172.53 222.13"/><polygon class="cls-6" points="170.09 220.74 171.39 221.48 171.39 151.52 170.09 150.77 170.09 220.74"/><polygon class="cls-29" points="165.26 127.61 191.4 112.52 217.54 127.61 191.4 142.71 165.26 127.61"/><polygon class="cls-30" points="169.33 127.61 191.4 114.88 213.46 127.61 191.4 140.35 169.33 127.61"/><polygon class="cls-26" points="191.4 117.02 211.6 128.69 213.46 127.61 191.4 114.88 169.33 127.61 171.19 128.69 191.4 117.02"/><polygon class="cls-31" points="191.4 142.71 191.4 159.78 217.54 144.69 217.54 127.61 191.4 142.71"/><polygon class="cls-32" points="191.4 159.78 165.26 144.69 165.26 127.61 191.4 142.71 191.4 159.78"/><polygon class="cls-33" points="178.33 120.07 191.4 112.52 204.47 120.07 191.4 127.61 178.33 120.07"/><polygon class="cls-34" points="180.37 120.07 191.4 113.7 202.43 120.07 191.4 126.44 180.37 120.07"/><polygon class="cls-26" points="191.4 114.77 201.5 120.61 202.43 120.07 191.4 113.7 180.37 120.07 181.3 120.61 191.4 114.77"/><polygon class="cls-35" points="191.4 127.61 191.4 136.15 204.47 128.61 204.47 120.07 191.4 127.61"/><polygon class="cls-36" points="191.4 136.15 178.33 128.61 178.33 120.07 191.4 127.61 191.4 136.15"/><polygon class="cls-37" points="272.1 234.85 237.65 214.96 295.06 181.81 329.51 201.7 272.1 234.85"/><polygon class="cls-38" points="272.1 234.85 272.1 240.38 329.51 207.23 329.51 201.7 272.1 234.85"/><polygon class="cls-39" points="272.1 240.38 237.65 220.49 237.65 214.96 272.1 234.85 272.1 240.38"/><polygon class="cls-40" points="273.69 174.48 244.02 157.35 293.47 128.8 323.14 145.93 273.69 174.48"/><polygon class="cls-41" points="274.48 172.65 247.18 156.89 292.68 130.62 319.98 146.38 274.48 172.65"/><polygon class="cls-42" points="292.68 133.1 317.83 147.62 319.98 146.38 292.68 130.62 247.18 156.89 249.32 158.13 292.68 133.1"/><polygon class="cls-43" points="273.69 174.48 273.69 231.57 323.14 203.02 323.14 145.93 273.69 174.48"/><polygon class="cls-44" points="273.69 231.57 244.02 214.44 244.02 157.35 273.69 174.48 273.69 231.57"/><polygon class="cls-11" points="284.68 191.13 276.14 196.03 276.14 192.87 284.68 187.96 284.68 191.13"/><polygon class="cls-11" points="296.44 184.37 287.91 189.27 287.91 186.1 296.44 181.2 296.44 184.37"/><polygon class="cls-11" points="308.21 177.61 299.68 182.51 299.68 179.34 308.21 174.44 308.21 177.61"/><polygon class="cls-11" points="319.98 170.84 311.45 175.75 311.45 172.58 319.98 167.68 319.98 170.84"/><polygon class="cls-11" points="284.68 197.12 276.14 202.02 276.14 198.86 284.68 193.95 284.68 197.12"/><polygon class="cls-11" points="296.44 190.36 287.91 195.26 287.91 192.09 296.44 187.19 296.44 190.36"/><polygon class="cls-11" points="308.21 183.6 299.68 188.5 299.68 185.33 308.21 180.43 308.21 183.6"/><polygon class="cls-11" points="319.98 176.83 311.45 181.74 311.45 178.57 319.98 173.67 319.98 176.83"/><polygon class="cls-11" points="284.68 203.11 276.14 208.01 276.14 204.85 284.68 199.94 284.68 203.11"/><polygon class="cls-11" points="296.44 196.35 287.91 201.25 287.91 198.08 296.44 193.18 296.44 196.35"/><polygon class="cls-11" points="308.21 189.59 299.68 194.49 299.68 191.32 308.21 186.42 308.21 189.59"/><polygon class="cls-11" points="319.98 182.82 311.45 187.73 311.45 184.56 319.98 179.66 319.98 182.82"/><polygon class="cls-11" points="284.68 209.1 276.14 214 276.14 210.84 284.68 205.93 284.68 209.1"/><polygon class="cls-11" points="296.44 202.34 287.91 207.24 287.91 204.07 296.44 199.17 296.44 202.34"/><polygon class="cls-11" points="308.21 195.57 299.68 200.48 299.68 197.31 308.21 192.41 308.21 195.57"/><polygon class="cls-11" points="319.98 188.81 311.45 193.72 311.45 190.55 319.98 185.65 319.98 188.81"/><polygon class="cls-11" points="284.68 215.09 276.14 219.99 276.14 216.82 284.68 211.92 284.68 215.09"/><polygon class="cls-11" points="296.44 208.33 287.91 213.23 287.91 210.06 296.44 205.16 296.44 208.33"/><polygon class="cls-11" points="308.21 201.56 299.68 206.47 299.68 203.3 308.21 198.4 308.21 201.56"/><polygon class="cls-11" points="319.98 194.8 311.45 199.71 311.45 196.54 319.98 191.64 319.98 194.8"/><polygon class="cls-11" points="284.68 221.08 276.14 225.98 276.14 222.81 284.68 217.91 284.68 221.08"/><polygon class="cls-11" points="296.44 214.31 287.91 219.22 287.91 216.05 296.44 211.15 296.44 214.31"/><polygon class="cls-11" points="308.21 207.55 299.68 212.46 299.68 209.29 308.21 204.39 308.21 207.55"/><polygon class="cls-11" points="260.48 189.95 269.01 194.85 269.01 191.69 260.48 186.78 260.48 189.95"/><polygon class="cls-11" points="248.71 183.19 257.24 188.09 257.24 184.92 248.71 180.02 248.71 183.19"/><polygon class="cls-11" points="260.48 195.94 269.01 200.84 269.01 197.68 260.48 192.77 260.48 195.94"/><polygon class="cls-11" points="248.71 189.18 257.24 194.08 257.24 190.91 248.71 186.01 248.71 189.18"/><polygon class="cls-11" points="260.48 201.93 269.01 206.83 269.01 203.66 260.48 198.76 260.48 201.93"/><polygon class="cls-11" points="248.71 195.16 257.24 200.07 257.24 196.9 248.71 192 248.71 195.16"/><polygon class="cls-11" points="260.48 207.92 269.01 212.82 269.01 209.65 260.48 204.75 260.48 207.92"/><polygon class="cls-11" points="248.71 201.16 257.24 206.06 257.24 202.89 248.71 197.99 248.71 201.16"/><polygon class="cls-11" points="260.48 213.91 269.01 218.81 269.01 215.64 260.48 210.74 260.48 213.91"/><polygon class="cls-11" points="248.71 207.14 257.24 212.05 257.24 208.88 248.71 203.98 248.71 207.14"/><polygon class="cls-11" points="260.48 219.9 269.01 224.8 269.01 221.63 260.48 216.73 260.48 219.9"/><polygon class="cls-11" points="248.71 213.13 257.24 218.04 257.24 214.87 248.71 209.97 248.71 213.13"/><polygon class="cls-11" points="319.98 200.79 311.45 205.69 311.45 202.53 319.98 197.63 319.98 200.79"/><polygon class="cls-45" points="272.1 173.6 237.65 153.71 295.06 120.56 329.51 140.45 272.1 173.6"/><polygon class="cls-46" points="272.1 173.6 272.1 179.12 329.51 145.97 329.51 140.45 272.1 173.6"/><polygon class="cls-47" points="272.1 179.12 237.65 159.23 237.65 153.71 272.1 173.6 272.1 179.12"/><polygon class="cls-40" points="273.69 113.22 244.02 96.09 293.47 67.55 323.14 84.67 273.69 113.22"/><polygon class="cls-41" points="274.48 111.4 247.18 95.64 292.68 69.37 319.98 85.13 274.48 111.4"/><polygon class="cls-42" points="292.68 71.84 317.83 86.37 319.98 85.13 292.68 69.37 247.18 95.64 249.32 96.88 292.68 71.84"/><polygon class="cls-48" points="273.69 113.22 273.69 170.32 323.14 141.77 323.14 84.67 273.69 113.22"/><polygon class="cls-49" points="273.69 170.32 244.02 153.19 244.02 96.09 273.69 113.22 273.69 170.32"/><polygon class="cls-50" points="273.69 117.61 273.69 119.84 323.14 91.29 323.14 89.07 273.69 117.61"/><polygon class="cls-51" points="273.69 119.84 244.02 102.71 244.02 100.49 273.69 117.61 273.69 119.84"/><polygon class="cls-52" points="273.69 123.32 273.69 125.55 323.14 97 323.14 94.78 273.69 123.32"/><polygon class="cls-53" points="273.69 125.55 244.02 108.42 244.02 106.2 273.69 123.32 273.69 125.55"/><polygon class="cls-54" points="273.69 182.96 273.69 185.19 323.14 156.64 323.14 154.41 273.69 182.96"/><polygon class="cls-55" points="273.69 185.19 244.02 168.06 244.02 165.83 273.69 182.96 273.69 185.19"/><polygon class="cls-56" points="273.69 188.67 273.69 190.9 323.14 162.35 323.14 160.12 273.69 188.67"/><polygon class="cls-57" points="273.69 190.9 244.02 173.77 244.02 171.54 273.69 188.67 273.69 190.9"/><polygon class="cls-11" points="284.68 129.06 276.14 133.97 276.14 130.8 284.68 125.9 284.68 129.06"/><polygon class="cls-11" points="296.44 122.3 287.91 127.21 287.91 124.04 296.44 119.14 296.44 122.3"/><polygon class="cls-11" points="308.21 115.54 299.68 120.44 299.68 117.28 308.21 112.38 308.21 115.54"/><polygon class="cls-11" points="319.98 108.78 311.45 113.68 311.45 110.52 319.98 105.61 319.98 108.78"/><polygon class="cls-11" points="284.68 135.05 276.14 139.96 276.14 136.79 284.68 131.89 284.68 135.05"/><polygon class="cls-11" points="296.44 128.29 287.91 133.19 287.91 130.03 296.44 125.13 296.44 128.29"/><polygon class="cls-11" points="308.21 121.53 299.68 126.43 299.68 123.27 308.21 118.36 308.21 121.53"/><polygon class="cls-11" points="319.98 114.77 311.45 119.67 311.45 116.5 319.98 111.6 319.98 114.77"/><polygon class="cls-11" points="284.68 141.04 276.14 145.95 276.14 142.78 284.68 137.88 284.68 141.04"/><polygon class="cls-11" points="296.44 134.28 287.91 139.18 287.91 136.02 296.44 131.12 296.44 134.28"/><polygon class="cls-11" points="308.21 127.52 299.68 132.42 299.68 129.26 308.21 124.35 308.21 127.52"/><polygon class="cls-11" points="319.98 120.76 311.45 125.66 311.45 122.49 319.98 117.59 319.98 120.76"/><polygon class="cls-11" points="284.68 147.03 276.14 151.94 276.14 148.77 284.68 143.87 284.68 147.03"/><polygon class="cls-11" points="296.44 140.27 287.91 145.17 287.91 142.01 296.44 137.1 296.44 140.27"/><polygon class="cls-11" points="308.21 133.51 299.68 138.41 299.68 135.25 308.21 130.34 308.21 133.51"/><polygon class="cls-11" points="319.98 126.75 311.45 131.65 311.45 128.48 319.98 123.58 319.98 126.75"/><polygon class="cls-11" points="284.68 153.02 276.14 157.93 276.14 154.76 284.68 149.85 284.68 153.02"/><polygon class="cls-11" points="296.44 146.26 287.91 151.16 287.91 148 296.44 143.09 296.44 146.26"/><polygon class="cls-11" points="308.21 139.5 299.68 144.4 299.68 141.23 308.21 136.33 308.21 139.5"/><polygon class="cls-11" points="319.98 132.74 311.45 137.64 311.45 134.47 319.98 129.57 319.98 132.74"/><polygon class="cls-11" points="284.68 159.01 276.14 163.91 276.14 160.75 284.68 155.84 284.68 159.01"/><polygon class="cls-11" points="296.44 152.25 287.91 157.15 287.91 153.99 296.44 149.08 296.44 152.25"/><polygon class="cls-11" points="308.21 145.49 299.68 150.39 299.68 147.22 308.21 142.32 308.21 145.49"/><polygon class="cls-11" points="260.48 127.88 269.01 132.79 269.01 129.62 260.48 124.72 260.48 127.88"/><polygon class="cls-11" points="248.71 121.12 257.24 126.02 257.24 122.86 248.71 117.95 248.71 121.12"/><polygon class="cls-11" points="260.48 133.87 269.01 138.78 269.01 135.61 260.48 130.71 260.48 133.87"/><polygon class="cls-11" points="248.71 127.11 257.24 132.01 257.24 128.85 248.71 123.94 248.71 127.11"/><polygon class="cls-11" points="260.48 139.86 269.01 144.76 269.01 141.6 260.48 136.69 260.48 139.86"/><polygon class="cls-11" points="248.71 133.1 257.24 138 257.24 134.84 248.71 129.93 248.71 133.1"/><polygon class="cls-11" points="260.48 145.85 269.01 150.75 269.01 147.59 260.48 142.68 260.48 145.85"/><polygon class="cls-11" points="248.71 139.09 257.24 143.99 257.24 140.82 248.71 135.92 248.71 139.09"/><polygon class="cls-11" points="260.48 151.84 269.01 156.74 269.01 153.58 260.48 148.67 260.48 151.84"/><polygon class="cls-11" points="248.71 145.08 257.24 149.98 257.24 146.81 248.71 141.91 248.71 145.08"/><polygon class="cls-11" points="260.48 157.83 269.01 162.73 269.01 159.56 260.48 154.66 260.48 157.83"/><polygon class="cls-11" points="248.71 151.07 257.24 155.97 257.24 152.8 248.71 147.9 248.71 151.07"/><polygon class="cls-11" points="319.98 138.72 311.45 143.63 311.45 140.46 319.98 135.56 319.98 138.72"/><path class="cls-58" d="M169.54,249.83V124.74h-56v125.1a2.92,2.92,0,0,0,1.49,2.57l23.07,13.32a6.8,6.8,0,0,0,6.84,0l23.08-13.32A3,3,0,0,0,169.54,249.83Z"/><path class="cls-59" d="M138.14,140.64l-23.07-13.33a3,3,0,0,1,0-5.15l23.07-13.32a6.85,6.85,0,0,1,6.84,0l23.08,13.32a3,3,0,0,1,0,5.15L145,140.64A6.85,6.85,0,0,1,138.14,140.64Z"/><path class="cls-60" d="M162.16,126.26v-7H121v7a2.17,2.17,0,0,0,1.09,1.9L139,138a5,5,0,0,0,5,0l17-9.81A2.18,2.18,0,0,0,162.16,126.26Z"/><path class="cls-61" d="M139,131l-17-9.8a2.19,2.19,0,0,1,0-3.79l17-9.81a5,5,0,0,1,5,0l17,9.81a2.19,2.19,0,0,1,0,3.79l-17,9.8A5,5,0,0,1,139,131Z"/><path class="cls-62" d="M168.32,244.39,145,257.85a6.91,6.91,0,0,1-6.9,0l-23.3-13.46a2.86,2.86,0,0,1-1.23-1.4v1.79a2.93,2.93,0,0,0,1.23,1.41l23.3,13.45a6.86,6.86,0,0,0,6.9,0l23.31-13.45a3,3,0,0,0,1.22-1.41V243A2.91,2.91,0,0,1,168.32,244.39Z"/><path class="cls-63" d="M168.32,236.52,145,250a6.86,6.86,0,0,1-6.9,0l-23.3-13.45a2.86,2.86,0,0,1-1.23-1.4v1.78a2.88,2.88,0,0,0,1.23,1.41l23.3,13.46a6.91,6.91,0,0,0,6.9,0l23.31-13.46a2.93,2.93,0,0,0,1.22-1.4v-1.79A2.89,2.89,0,0,1,168.32,236.52Z"/><path class="cls-64" d="M168.32,228.65,145,242.1a6.91,6.91,0,0,1-6.9,0l-23.3-13.45a2.9,2.9,0,0,1-1.23-1.4V229a2.88,2.88,0,0,0,1.23,1.41l23.3,13.45a6.86,6.86,0,0,0,6.9,0l23.31-13.45a2.91,2.91,0,0,0,1.22-1.41v-1.78A2.89,2.89,0,0,1,168.32,228.65Z"/><path class="cls-65" d="M168.32,220.77,145,234.23a6.91,6.91,0,0,1-6.9,0l-23.3-13.46a2.86,2.86,0,0,1-1.23-1.4v1.79a2.93,2.93,0,0,0,1.23,1.41L138.11,236a6.91,6.91,0,0,0,6.9,0l23.31-13.45a3,3,0,0,0,1.22-1.41v-1.78A2.91,2.91,0,0,1,168.32,220.77Z"/><path class="cls-66" d="M168.32,212.9,145,226.35a6.86,6.86,0,0,1-6.9,0l-23.3-13.45a2.86,2.86,0,0,1-1.23-1.4v1.78a2.88,2.88,0,0,0,1.23,1.41l23.3,13.46a6.91,6.91,0,0,0,6.9,0l23.31-13.46a2.93,2.93,0,0,0,1.22-1.4V211.5A2.89,2.89,0,0,1,168.32,212.9Z"/><path class="cls-67" d="M168.32,205,145,218.48a6.91,6.91,0,0,1-6.9,0L114.81,205a2.9,2.9,0,0,1-1.23-1.4v1.78a2.88,2.88,0,0,0,1.23,1.41l23.3,13.45a6.86,6.86,0,0,0,6.9,0l23.31-13.45a2.91,2.91,0,0,0,1.22-1.41v-1.78A2.89,2.89,0,0,1,168.32,205Z"/><path class="cls-68" d="M168.32,197.15,145,210.61a6.91,6.91,0,0,1-6.9,0l-23.3-13.46a2.86,2.86,0,0,1-1.23-1.4v1.79a2.93,2.93,0,0,0,1.23,1.41l23.3,13.45a6.91,6.91,0,0,0,6.9,0L168.32,199a3,3,0,0,0,1.22-1.41v-1.79A2.89,2.89,0,0,1,168.32,197.15Z"/><path class="cls-69" d="M168.32,189.28,145,202.73a6.86,6.86,0,0,1-6.9,0l-23.3-13.45a2.86,2.86,0,0,1-1.23-1.4v1.78a2.88,2.88,0,0,0,1.23,1.41l23.3,13.46a6.91,6.91,0,0,0,6.9,0l23.31-13.46a2.91,2.91,0,0,0,1.22-1.41v-1.78A2.89,2.89,0,0,1,168.32,189.28Z"/><path class="cls-70" d="M168.32,181.41,145,194.86a6.91,6.91,0,0,1-6.9,0l-23.3-13.45a3,3,0,0,1-1.23-1.4v1.78a2.88,2.88,0,0,0,1.23,1.41l23.3,13.45a6.86,6.86,0,0,0,6.9,0l23.31-13.45a2.91,2.91,0,0,0,1.22-1.41V180A3,3,0,0,1,168.32,181.41Z"/><path class="cls-71" d="M168.32,173.53,145,187a6.91,6.91,0,0,1-6.9,0l-23.3-13.46a2.86,2.86,0,0,1-1.23-1.4v1.79a2.93,2.93,0,0,0,1.23,1.41l23.3,13.45a6.91,6.91,0,0,0,6.9,0l23.31-13.45a3,3,0,0,0,1.22-1.41v-1.79A2.89,2.89,0,0,1,168.32,173.53Z"/><path class="cls-72" d="M168.32,165.66,145,179.11a6.86,6.86,0,0,1-6.9,0l-23.3-13.45a2.86,2.86,0,0,1-1.23-1.4V166a2.88,2.88,0,0,0,1.23,1.41l23.3,13.46a6.91,6.91,0,0,0,6.9,0l23.31-13.46a2.91,2.91,0,0,0,1.22-1.41v-1.78A2.89,2.89,0,0,1,168.32,165.66Z"/><path class="cls-73" d="M168.32,157.79,145,171.24a6.91,6.91,0,0,1-6.9,0l-23.3-13.45a3,3,0,0,1-1.23-1.4v1.78a2.93,2.93,0,0,0,1.23,1.41L138.11,173a6.86,6.86,0,0,0,6.9,0l23.31-13.45a2.91,2.91,0,0,0,1.22-1.41v-1.78A3,3,0,0,1,168.32,157.79Z"/><path class="cls-74" d="M168.32,149.91,145,163.37a6.91,6.91,0,0,1-6.9,0l-23.3-13.46a2.86,2.86,0,0,1-1.23-1.4v1.79a2.93,2.93,0,0,0,1.23,1.41l23.3,13.45a6.91,6.91,0,0,0,6.9,0l23.31-13.45a3,3,0,0,0,1.22-1.41v-1.79A2.89,2.89,0,0,1,168.32,149.91Z"/><path class="cls-75" d="M168.32,142,145,155.49a6.86,6.86,0,0,1-6.9,0L114.81,142a2.86,2.86,0,0,1-1.23-1.4v1.78a2.88,2.88,0,0,0,1.23,1.41l23.3,13.46a6.91,6.91,0,0,0,6.9,0l23.31-13.46a2.91,2.91,0,0,0,1.22-1.41v-1.78A2.89,2.89,0,0,1,168.32,142Z"/><path class="cls-76" d="M168.32,134.17,145,147.62a6.91,6.91,0,0,1-6.9,0l-23.3-13.45a2.93,2.93,0,0,1-1.23-1.41v1.79a2.93,2.93,0,0,0,1.23,1.41l23.3,13.45a6.86,6.86,0,0,0,6.9,0L168.32,136a3,3,0,0,0,1.22-1.41v-1.78A3,3,0,0,1,168.32,134.17Z"/><polygon class="cls-77" points="303.4 248.61 350.56 221.38 382.01 239.53 334.84 266.76 303.4 248.61"/><polygon class="cls-78" points="334.84 266.76 334.84 273.11 382.01 245.88 382.01 239.53 334.84 266.76"/><polygon class="cls-79" points="334.84 273.11 303.4 254.95 303.4 248.61 334.84 266.76 334.84 273.11"/><polygon class="cls-80" points="305.11 239.54 350.22 213.5 380.3 230.86 335.18 256.91 305.11 239.54"/><polygon class="cls-81" points="335.18 256.91 335.18 265.56 380.3 239.51 380.3 230.86 335.18 256.91"/><polygon class="cls-82" points="335.18 265.56 305.11 248.19 305.11 239.54 335.18 256.91 335.18 265.56"/><polygon class="cls-83" points="308.66 175.62 349.51 152.04 376.74 167.76 335.89 191.34 308.66 175.62"/><polygon class="cls-84" points="335.89 191.34 335.89 254.23 376.74 230.65 376.74 167.76 335.89 191.34"/><polygon class="cls-85" points="335.89 254.23 308.66 238.51 308.66 175.62 335.89 191.34 335.89 254.23"/><polygon class="cls-86" points="312.91 169.98 348.66 149.34 372.49 163.1 336.74 183.74 312.91 169.98"/><polygon class="cls-87" points="336.74 183.74 336.74 188.55 372.49 167.91 372.49 163.1 336.74 183.74"/><polygon class="cls-88" points="336.74 188.55 312.91 174.79 312.91 169.98 336.74 183.74 336.74 188.55"/><polygon class="cls-6" points="346.66 197.53 343.72 199.22 343.72 191.61 346.66 189.92 346.66 197.53"/><polygon class="cls-6" points="352.88 193.96 349.93 195.65 349.93 188.04 352.88 186.34 352.88 193.96"/><polygon class="cls-6" points="359.09 190.38 356.15 192.07 356.15 184.46 359.09 182.77 359.09 190.38"/><polygon class="cls-6" points="365.31 186.81 362.36 188.5 362.36 180.89 365.31 179.19 365.31 186.81"/><polygon class="cls-6" points="371.52 183.23 368.58 184.93 368.58 177.31 371.52 175.62 371.52 183.23"/><polygon class="cls-6" points="346.66 209.64 343.72 211.34 343.72 203.72 346.66 202.03 346.66 209.64"/><polygon class="cls-6" points="352.88 206.07 349.93 207.76 349.93 200.15 352.88 198.45 352.88 206.07"/><polygon class="cls-6" points="359.09 202.49 356.15 204.19 356.15 196.57 359.09 194.88 359.09 202.49"/><polygon class="cls-6" points="365.31 198.92 362.36 200.61 362.36 193 365.31 191.31 365.31 198.92"/><polygon class="cls-6" points="371.52 195.34 368.58 197.04 368.58 189.42 371.52 187.73 371.52 195.34"/><polygon class="cls-6" points="346.66 221.75 343.72 223.45 343.72 215.83 346.66 214.14 346.66 221.75"/><polygon class="cls-6" points="352.88 218.18 349.93 219.87 349.93 212.26 352.88 210.56 352.88 218.18"/><polygon class="cls-6" points="359.09 214.6 356.15 216.3 356.15 208.68 359.09 206.99 359.09 214.6"/><polygon class="cls-6" points="365.31 211.03 362.36 212.72 362.36 205.11 365.31 203.42 365.31 211.03"/><polygon class="cls-6" points="371.52 207.46 368.58 209.15 368.58 201.53 371.52 199.84 371.52 207.46"/><polygon class="cls-6" points="346.66 233.86 343.72 235.56 343.72 227.94 346.66 226.25 346.66 233.86"/><polygon class="cls-6" points="352.88 230.29 349.93 231.98 349.93 224.37 352.88 222.68 352.88 230.29"/><polygon class="cls-6" points="359.09 226.71 356.15 228.41 356.15 220.79 359.09 219.1 359.09 226.71"/><polygon class="cls-6" points="365.31 223.14 362.36 224.83 362.36 217.22 365.31 215.53 365.31 223.14"/><polygon class="cls-6" points="371.52 219.56 368.58 221.26 368.58 213.65 371.52 211.95 371.52 219.56"/><polygon class="cls-6" points="346.66 245.97 343.72 247.67 343.72 240.05 346.66 238.36 346.66 245.97"/><polygon class="cls-6" points="352.88 242.4 349.93 244.09 349.93 236.48 352.88 234.79 352.88 242.4"/><polygon class="cls-6" points="359.09 238.82 356.15 240.52 356.15 232.9 359.09 231.21 359.09 238.82"/><polygon class="cls-6" points="365.31 235.25 362.36 236.94 362.36 229.33 365.31 227.64 365.31 235.25"/><polygon class="cls-6" points="371.52 231.68 368.58 233.37 368.58 225.75 371.52 224.06 371.52 231.68"/><polygon class="cls-89" points="314.21 163.11 348.4 143.37 371.2 156.53 337 176.27 314.21 163.11"/><polygon class="cls-90" points="337 176.27 337 182.82 371.2 163.08 371.2 156.53 337 176.27"/><polygon class="cls-91" points="337 182.82 314.21 169.66 314.21 163.11 337 176.27 337 182.82"/><polygon class="cls-92" points="312.91 158.89 348.66 138.25 372.49 152.01 336.74 172.65 312.91 158.89"/><polygon class="cls-93" points="336.74 172.65 336.74 177.46 372.49 156.82 372.49 152.01 336.74 172.65"/><polygon class="cls-94" points="336.74 177.46 312.91 163.7 312.91 158.89 336.74 172.65 336.74 177.46"/><polygon class="cls-95" points="314.21 152.02 348.4 132.28 371.2 145.44 337 165.18 314.21 152.02"/><polygon class="cls-96" points="337 165.18 337 171.73 371.2 151.99 371.2 145.44 337 165.18"/><polygon class="cls-97" points="337 171.73 314.21 158.57 314.21 152.02 337 165.18 337 171.73"/><polygon class="cls-98" points="312.91 147.8 348.66 127.16 372.49 140.92 336.74 161.56 312.91 147.8"/><polygon class="cls-99" points="336.74 161.56 336.74 166.37 372.49 145.73 372.49 140.92 336.74 161.56"/><polygon class="cls-100" points="336.74 166.37 312.91 152.61 312.91 147.8 336.74 161.56 336.74 166.37"/><polygon class="cls-101" points="314.21 140.93 348.4 121.19 371.2 134.35 337 154.09 314.21 140.93"/><polygon class="cls-102" points="337 154.09 337 160.64 371.2 140.9 371.2 134.35 337 154.09"/><polygon class="cls-103" points="337 160.64 314.21 147.48 314.21 140.93 337 154.09 337 160.64"/><polygon class="cls-104" points="312.91 136.71 348.66 116.07 372.49 129.83 336.74 150.47 312.91 136.71"/><polygon class="cls-105" points="336.74 150.47 336.74 155.27 372.49 134.63 372.49 129.83 336.74 150.47"/><polygon class="cls-106" points="336.74 155.27 312.91 141.51 312.91 136.71 336.74 150.47 336.74 155.27"/><polygon class="cls-107" points="314.21 129.84 348.4 110.1 371.2 123.26 337 143 314.21 129.84"/><polygon class="cls-108" points="337 143 337 149.55 371.2 129.81 371.2 123.26 337 143"/><polygon class="cls-109" points="337 149.55 314.21 136.39 314.21 129.84 337 143 337 149.55"/><polygon class="cls-110" points="312.91 125.62 348.66 104.98 372.49 118.74 336.74 139.38 312.91 125.62"/><polygon class="cls-111" points="336.74 139.38 336.74 144.18 372.49 123.54 372.49 118.74 336.74 139.38"/><polygon class="cls-112" points="336.74 144.18 312.91 130.42 312.91 125.62 336.74 139.38 336.74 144.18"/><polygon class="cls-113" points="314.21 118.75 348.4 99 371.2 112.17 337 131.91 314.21 118.75"/><polygon class="cls-114" points="337 131.91 337 138.46 371.2 118.72 371.2 112.17 337 131.91"/><polygon class="cls-115" points="337 138.46 314.21 125.3 314.21 118.75 337 131.91 337 138.46"/><polygon class="cls-40" points="248.27 246.82 216.51 228.49 269.44 197.93 301.2 216.26 248.27 246.82"/><polygon class="cls-41" points="249.12 244.87 219.89 228 268.6 199.88 297.82 216.75 249.12 244.87"/><polygon class="cls-42" points="268.6 202.53 295.53 218.07 297.82 216.75 268.6 199.88 219.89 228 222.19 229.32 268.6 202.53"/><polygon class="cls-41" points="248.27 246.82 248.27 307.94 301.2 277.38 301.2 216.26 248.27 246.82"/><polygon class="cls-116" points="248.27 307.94 216.51 289.61 216.51 228.49 248.27 246.82 248.27 307.94"/><polygon class="cls-12" points="248.27 252.93 248.27 253.95 301.2 223.39 301.2 222.37 248.27 252.93"/><polygon class="cls-12" points="248.27 253.95 216.51 235.62 216.51 234.6 248.27 252.93 248.27 253.95"/><polygon class="cls-117" points="248.27 261.08 248.27 262.1 301.2 231.54 301.2 230.52 248.27 261.08"/><polygon class="cls-118" points="248.27 262.1 216.51 243.77 216.51 242.75 248.27 261.08 248.27 262.1"/><polygon class="cls-117" points="248.27 269.24 248.27 270.25 301.2 239.69 301.2 238.68 248.27 269.24"/><polygon class="cls-118" points="248.27 270.25 216.51 251.92 216.51 250.9 248.27 269.24 248.27 270.25"/><polygon class="cls-12" points="248.27 277.38 248.27 278.4 301.2 247.84 301.2 246.82 248.27 277.38"/><polygon class="cls-12" points="248.27 278.4 216.51 260.07 216.51 259.05 248.27 277.38 248.27 278.4"/><polygon class="cls-117" points="248.27 285.54 248.27 286.55 301.2 255.99 301.2 254.98 248.27 285.54"/><polygon class="cls-118" points="248.27 286.55 216.51 268.22 216.51 267.2 248.27 285.54 248.27 286.55"/><polygon class="cls-117" points="248.27 293.69 248.27 294.7 301.2 264.14 301.2 263.13 248.27 293.69"/><polygon class="cls-118" points="248.27 294.7 216.51 276.37 216.51 275.35 248.27 293.69 248.27 294.7"/><polygon class="cls-117" points="248.27 301.84 248.27 302.86 301.2 272.29 301.2 271.28 248.27 301.84"/><polygon class="cls-118" points="248.27 302.86 216.51 284.52 216.51 283.5 248.27 301.84 248.27 302.86"/><polygon class="cls-119" points="258.01 210.25 267.23 204.93 273.38 208.48 264.16 213.8 258.01 210.25"/><polygon class="cls-120" points="259.23 210.11 266.99 205.63 272.16 208.62 264.4 213.1 259.23 210.11"/><polygon class="cls-121" points="266.99 206.25 271.63 208.93 272.16 208.62 266.99 205.63 259.23 210.11 259.77 210.42 266.99 206.25"/><polygon class="cls-122" points="264.16 213.8 264.16 215.89 273.38 210.56 273.38 208.48 264.16 213.8"/><polygon class="cls-123" points="264.16 215.89 258.01 212.34 258.01 210.25 264.16 213.8 264.16 215.89"/><polygon class="cls-124" points="264.96 214.44 274.19 209.12 280.34 212.67 271.12 217.99 264.96 214.44"/><polygon class="cls-125" points="266.19 214.3 273.95 209.82 279.12 212.81 271.36 217.29 266.19 214.3"/><polygon class="cls-126" points="273.95 210.44 278.58 213.12 279.12 212.81 273.95 209.82 266.19 214.3 266.72 214.61 273.95 210.44"/><polygon class="cls-127" points="271.12 217.99 271.12 220.08 280.34 214.76 280.34 212.67 271.12 217.99"/><polygon class="cls-128" points="271.12 220.08 264.96 216.53 264.96 214.44 271.12 217.99 271.12 220.08"/><polygon class="cls-129" points="144.65 229.01 185.5 205.43 212.73 221.15 171.89 244.74 144.65 229.01"/><polygon class="cls-130" points="171.89 244.74 171.89 307.62 212.73 284.04 212.73 221.15 171.89 244.74"/><polygon class="cls-131" points="171.89 307.62 144.65 291.9 144.65 229.01 171.89 244.74 171.89 307.62"/><polygon class="cls-132" points="149.6 224.54 184.51 204.38 207.78 217.82 172.88 237.97 149.6 224.54"/><polygon class="cls-133" points="172.88 237.97 172.88 241.52 207.78 221.36 207.78 217.82 172.88 237.97"/><polygon class="cls-134" points="172.88 241.52 149.6 228.08 149.6 224.54 172.88 237.97 172.88 241.52"/><polygon class="cls-11" points="179.18 256.63 176.89 257.95 176.89 247.13 179.18 245.81 179.18 256.63"/><polygon class="cls-11" points="183.53 254.12 181.24 255.44 181.24 244.62 183.53 243.3 183.53 254.12"/><polygon class="cls-11" points="187.88 251.61 185.59 252.93 185.59 242.12 187.88 240.79 187.88 251.61"/><polygon class="cls-11" points="192.24 249.1 189.95 250.43 189.95 239.61 192.24 238.29 192.24 249.1"/><polygon class="cls-11" points="196.59 246.6 194.3 247.92 194.3 237.1 196.59 235.78 196.59 246.6"/><polygon class="cls-12" points="200.94 244.09 198.65 245.41 198.65 234.59 200.94 233.27 200.94 244.09"/><polygon class="cls-11" points="205.29 241.58 203 242.9 203 232.08 205.29 230.76 205.29 241.58"/><polygon class="cls-11" points="209.65 239.07 207.35 240.39 207.35 229.57 209.65 228.25 209.65 239.07"/><polygon class="cls-12" points="179.18 271.09 176.89 272.41 176.89 261.59 179.18 260.27 179.18 271.09"/><polygon class="cls-11" points="183.53 268.58 181.24 269.9 181.24 259.08 183.53 257.76 183.53 268.58"/><polygon class="cls-11" points="187.88 266.07 185.59 267.39 185.59 256.57 187.88 255.25 187.88 266.07"/><polygon class="cls-11" points="192.24 263.57 189.95 264.89 189.95 254.07 192.24 252.75 192.24 263.57"/><polygon class="cls-11" points="196.59 261.06 194.3 262.38 194.3 251.56 196.59 250.24 196.59 261.06"/><polygon class="cls-11" points="200.94 258.55 198.65 259.87 198.65 249.05 200.94 247.73 200.94 258.55"/><polygon class="cls-11" points="205.29 256.04 203 257.36 203 246.54 205.29 245.22 205.29 256.04"/><polygon class="cls-11" points="209.65 253.53 207.35 254.85 207.35 244.04 209.65 242.72 209.65 253.53"/><polygon class="cls-11" points="179.18 285.55 176.89 286.87 176.89 276.05 179.18 274.73 179.18 285.55"/><polygon class="cls-11" points="183.53 283.04 181.24 284.36 181.24 273.54 183.53 272.22 183.53 283.04"/><polygon class="cls-11" points="187.88 280.54 185.59 281.86 185.59 271.04 187.88 269.72 187.88 280.54"/><polygon class="cls-11" points="192.24 278.03 189.95 279.35 189.95 268.53 192.24 267.21 192.24 278.03"/><polygon class="cls-11" points="196.59 275.52 194.3 276.84 194.3 266.02 196.59 264.7 196.59 275.52"/><polygon class="cls-11" points="200.94 273.01 198.65 274.33 198.65 263.51 200.94 262.19 200.94 273.01"/><polygon class="cls-11" points="205.29 270.5 203 271.82 203 261 205.29 259.68 205.29 270.5"/><polygon class="cls-11" points="209.65 268 207.35 269.32 207.35 258.5 209.65 257.18 209.65 268"/><polygon class="cls-11" points="179.18 300.01 176.89 301.33 176.89 290.51 179.18 289.19 179.18 300.01"/><polygon class="cls-11" points="183.53 297.5 181.24 298.82 181.24 288 183.53 286.69 183.53 297.5"/><polygon class="cls-11" points="187.88 295 185.59 296.32 185.59 285.5 187.88 284.18 187.88 295"/><polygon class="cls-11" points="192.24 292.49 189.95 293.81 189.95 282.99 192.24 281.67 192.24 292.49"/><polygon class="cls-11" points="196.59 289.98 194.3 291.3 194.3 280.48 196.59 279.16 196.59 289.98"/><polygon class="cls-11" points="200.94 287.47 198.65 288.79 198.65 277.97 200.94 276.65 200.94 287.47"/><polygon class="cls-12" points="205.29 284.96 203 286.29 203 275.47 205.29 274.14 205.29 284.96"/><polygon class="cls-11" points="209.65 282.46 207.35 283.78 207.35 272.96 209.65 271.64 209.65 282.46"/><polygon class="cls-6" points="165.35 257.06 167.64 258.38 167.64 247.56 165.35 246.24 165.35 257.06"/><polygon class="cls-6" points="161 254.55 163.29 255.87 163.29 245.05 161 243.73 161 254.55"/><polygon class="cls-6" points="156.64 252.04 158.94 253.36 158.94 242.54 156.64 241.22 156.64 252.04"/><polygon class="cls-6" points="152.29 249.53 154.58 250.85 154.58 240.03 152.29 238.71 152.29 249.53"/><polygon class="cls-6" points="147.94 247.02 150.23 248.34 150.23 237.53 147.94 236.2 147.94 247.02"/><polygon class="cls-6" points="165.35 271.52 167.64 272.84 167.64 262.02 165.35 260.7 165.35 271.52"/><polygon class="cls-6" points="161 269.01 163.29 270.33 163.29 259.51 161 258.19 161 269.01"/><polygon class="cls-6" points="156.64 266.5 158.94 267.82 158.94 257 156.64 255.68 156.64 266.5"/><polygon class="cls-12" points="152.29 263.99 154.58 265.31 154.58 254.49 152.29 253.17 152.29 263.99"/><polygon class="cls-6" points="147.94 261.48 150.23 262.81 150.23 251.99 147.94 250.66 147.94 261.48"/><polygon class="cls-6" points="165.35 285.98 167.64 287.3 167.64 276.48 165.35 275.16 165.35 285.98"/><polygon class="cls-6" points="161 283.47 163.29 284.79 163.29 273.97 161 272.65 161 283.47"/><polygon class="cls-6" points="156.64 280.96 158.94 282.28 158.94 271.46 156.64 270.14 156.64 280.96"/><polygon class="cls-6" points="152.29 278.45 154.58 279.77 154.58 268.95 152.29 267.63 152.29 278.45"/><polygon class="cls-6" points="147.94 275.94 150.23 277.27 150.23 266.45 147.94 265.13 147.94 275.94"/><polygon class="cls-6" points="165.35 300.44 167.64 301.76 167.64 290.94 165.35 289.62 165.35 300.44"/><polygon class="cls-12" points="161 297.93 163.29 299.25 163.29 288.43 161 287.11 161 297.93"/><polygon class="cls-6" points="156.64 295.42 158.94 296.74 158.94 285.92 156.64 284.6 156.64 295.42"/><polygon class="cls-6" points="152.29 292.91 154.58 294.24 154.58 283.42 152.29 282.1 152.29 292.91"/><polygon class="cls-6" points="147.94 290.41 150.23 291.73 150.23 280.91 147.94 279.59 147.94 290.41"/><path class="cls-12" d="M96.07,106.18c0-6.37-4.47-9-10-5.83s-10,10.9-10,17.27c0,4.94,2.69,7.61,6.44,7.1l-.67,5.3,8.39-4.81-.68-4.53C93.39,116.87,96.07,111.12,96.07,106.18Zm-7.72,5.94a4.86,4.86,0,0,0,.36-1.71c0-1.66-1.16-2.34-2.6-1.52a5.74,5.74,0,0,0-2.6,4.51,2.2,2.2,0,0,0,.36,1.29l-.24,1.89a2.54,2.54,0,0,1-1.28-2.52,8.32,8.32,0,0,1,3.76-6.52c2.07-1.19,3.76-.2,3.76,2.21a7.82,7.82,0,0,1-1.28,4Zm.4,2.66a10,10,0,0,0,2-5.53c0-3-2.07-4.16-4.62-2.7a10.21,10.21,0,0,0-4.61,8c0,1.81.78,3,2,3.25l-.31,2.37c-2-.06-3.45-1.74-3.45-4.6a14.17,14.17,0,0,1,6.39-11.1c3.53-2,6.4-.34,6.4,3.75a14.14,14.14,0,0,1-3.46,8.57Zm.74,5-.3-2a16.1,16.1,0,0,0,4.17-10c0-4.64-3.25-6.55-7.25-4.25a16,16,0,0,0-7.25,12.58c0,3.36,1.71,5.28,4.17,5.21l-.3,2.37c-3.35.36-5.72-2.08-5.72-6.52,0-5.82,4.08-12.91,9.1-15.79s9.1-.49,9.1,5.34C95.21,111.11,92.84,116.28,89.49,119.76Z"/><polygon class="cls-135" points="101.86 130.46 101.86 130.45 101.86 130.45 101.86 130.46"/><polygon class="cls-136" points="68.22 130.45 68.22 130.45 68.22 130.46 68.22 130.45"/><path class="cls-137" d="M85,137.09c-7.54,0-14-2.53-16.46-6.09L85,156.71,101.5,131C99,134.56,92.58,137.09,85,137.09Z"/><ellipse class="cls-138" cx="85.04" cy="127.71" rx="17.58" ry="9.38"/><path class="cls-12" d="M140.84,91.71c.74,1.13,2.15,1.38,3.79.44a9.45,9.45,0,0,0,3.79-4.79Z"/><path class="cls-12" d="M143.05,69.35a16.87,16.87,0,0,0-5.58,9.74c-.46,2.89.13,5,1.36,6.14a7.35,7.35,0,0,1,2,5.54h0l7.58-4.35a19.25,19.25,0,0,1,2.06-8A14.16,14.16,0,0,0,152,72.54C152,67.25,147.78,65.49,143.05,69.35ZM141.64,78c-.77.45-1.4.08-1.4-.82a3.13,3.13,0,0,1,1.4-2.44c.78-.44,1.41-.07,1.41.83A3.08,3.08,0,0,1,141.64,78Z"/><path class="cls-12" d="M144.78,67c-.33.19-.59,0-.59-.35V64a1.3,1.3,0,0,1,.59-1c.33-.18.59,0,.59.35V66A1.29,1.29,0,0,1,144.78,67Z"/><path class="cls-12" d="M139,72.94a.41.41,0,0,1-.42,0L137,72c-.23-.13-.23-.56,0-1s.6-.62.83-.48l1.6.94c.23.13.23.57,0,1A1.1,1.1,0,0,1,139,72.94Z"/><path class="cls-12" d="M136.54,81l-2.26,1.3c-.33.19-.59,0-.59-.34a1.3,1.3,0,0,1,.59-1l2.26-1.3c.33-.18.59,0,.59.35A1.29,1.29,0,0,1,136.54,81Z"/><path class="cls-12" d="M155,70.71,152.71,72c-.32.19-.58,0-.58-.34a1.29,1.29,0,0,1,.58-1l2.27-1.3c.32-.19.59,0,.59.34A1.31,1.31,0,0,1,155,70.71Z"/><path class="cls-12" d="M150.45,66.62a.39.39,0,0,1-.41,0c-.23-.13-.23-.56,0-1l1.6-2.78c.23-.4.6-.62.83-.48s.23.57,0,1l-1.6,2.78A1.19,1.19,0,0,1,150.45,66.62Z"/><polygon class="cls-139" points="159.28 93.78 159.28 93.78 159.28 93.78 159.28 93.78"/><polygon class="cls-140" points="125.64 93.78 125.64 93.78 125.64 93.78 125.64 93.78"/><path class="cls-141" d="M142.46,100.42c-7.54,0-14-2.53-16.46-6.09L142.46,120l16.46-25.71C156.42,97.89,150,100.42,142.46,100.42Z"/><ellipse class="cls-142" cx="142.46" cy="91.04" rx="17.58" ry="9.38"/><polygon class="cls-12" points="214.69 26 212.03 27.52 212.03 41.22 214.69 39.69 214.69 26"/><polygon class="cls-12" points="219.42 21.6 216.77 23.13 216.77 38.5 219.42 36.97 219.42 21.6"/><polygon class="cls-12" points="224.16 17.52 221.5 19.04 221.5 35.78 224.16 34.26 224.16 17.52"/><polygon class="cls-12" points="228.89 12.95 226.23 14.48 226.23 33.06 228.89 31.54 228.89 12.95"/><path class="cls-12" d="M229.52,1.07c0-.95-.66-1.34-1.48-.87a3.26,3.26,0,0,0-1.48,2.57,1.15,1.15,0,0,0,.24.74l-3.7,7.72a1.43,1.43,0,0,0-.27.09,3.26,3.26,0,0,0-1.47,2.5l-3.15,3.43a1.09,1.09,0,0,0-.73.16A3.09,3.09,0,0,0,216.21,19l-3.36,2.57a1,1,0,0,0-1.11,0,3.29,3.29,0,0,0-1.48,2.57c0,.95.67,1.34,1.48.87a3.06,3.06,0,0,0,1.14-1.31L216.53,21a1.12,1.12,0,0,0,.95-.12,3.31,3.31,0,0,0,1.38-2l3.73-4a1.35,1.35,0,0,0,.24-.08,3.25,3.25,0,0,0,1.46-2.46L228.77,3A3.22,3.22,0,0,0,229.52,1.07Z"/><polygon class="cls-143" points="235.34 38.78 235.34 38.77 235.34 38.77 235.34 38.78"/><polygon class="cls-144" points="201.71 38.77 201.71 38.77 201.71 38.78 201.71 38.77"/><path class="cls-145" d="M218.52,45.41c-7.53,0-14-2.53-16.46-6.09L218.52,65,235,39.32C232.49,42.88,226.06,45.41,218.52,45.41Z"/><ellipse class="cls-146" cx="218.52" cy="36.03" rx="17.58" ry="9.38"/><path class="cls-12" d="M296.76,46.33c0-.16,0-.32,0-.48,0-5.34-3.73-7.53-8.33-4.88a12.53,12.53,0,0,0-1.8,1.27c-1.51-1.62-4-1.83-6.82-.21-4.6,2.64-8.33,9.11-8.33,14.45a7.69,7.69,0,0,0,.83,3.65,14,14,0,0,0-1.92,6.61c0,4.4,3.08,6.2,6.87,4l4.6-2.64V55.27l-4.56,2.62a3.32,3.32,0,0,1-1.16,1.29c-.87.5-1.58.09-1.58-.92a3.48,3.48,0,0,1,1.58-2.73.94.94,0,0,1,1.33.15l6.21-3.56V67.07l1.8-1V48.23L289.38,46a3.4,3.4,0,0,1,1.33-1.69c.87-.5,1.58-.09,1.58.92A3.48,3.48,0,0,1,290.71,48a1,1,0,0,1-1.16.05l-2.21,1.27V65l4.32-2.48a15.16,15.16,0,0,0,6.86-11.91A5.06,5.06,0,0,0,296.76,46.33Z"/><polygon class="cls-147" points="301.29 66.28 301.3 66.27 301.3 66.27 301.29 66.28"/><polygon class="cls-148" points="267.66 66.27 267.66 66.27 267.66 66.28 267.66 66.27"/><path class="cls-149" d="M284.48,72.91c-7.54,0-14-2.53-16.47-6.08l16.47,25.71,16.46-25.71C298.44,70.38,292,72.91,284.48,72.91Z"/><ellipse class="cls-150" cx="284.48" cy="63.53" rx="17.58" ry="9.38"/><path class="cls-12" d="M348,87.87c-6.91,4-12.52.67-12.52-7.34S341.09,62.78,348,58.82s12.51-.67,12.51,7.33S354.9,83.9,348,87.87ZM348,61c-5.86,3.37-10.63,11.64-10.63,18.44S342.14,89,348,85.67,358.62,74,358.62,67.24,353.85,57.65,348,61Z"/><polygon class="cls-12" points="347.18 64.23 343.81 76.29 347.63 75.11 345.62 84.15 353.4 69.31 347.96 71.36 347.18 64.23"/><polygon class="cls-151" points="360.53 89.81 360.54 89.81 360.54 89.81 360.53 89.81"/><polygon class="cls-152" points="326.9 89.81 326.9 89.81 326.9 89.81 326.9 89.81"/><path class="cls-153" d="M343.72,96.44c-7.54,0-14-2.53-16.47-6.08l16.47,25.71,16.46-25.71C357.68,93.91,351.25,96.44,343.72,96.44Z"/><ellipse class="cls-154" cx="343.72" cy="87.06" rx="17.58" ry="9.38"/><polygon class="cls-155" points="277.9 197.59 277.9 197.59 277.9 197.59 277.9 197.59"/><polygon class="cls-156" points="244.26 197.59 244.26 197.59 244.27 197.59 244.26 197.59"/><path class="cls-157" d="M261.08,204.22c-7.53,0-14-2.53-16.46-6.08l16.46,25.71,16.47-25.71C275.05,201.69,268.62,204.22,261.08,204.22Z"/><ellipse class="cls-158" cx="261.08" cy="194.84" rx="17.58" ry="9.38"/><path class="cls-12" d="M274.11,174.25c0-6.92-4.85-9.76-10.81-6.34s-10.8,11.83-10.8,18.75c0,.5.35.7.78.46a1.74,1.74,0,0,0,.78-1.36c0-5.91,4.15-13.11,9.24-16s9.25-.5,9.25,5.41c0,5.68-3.82,12.52-8.63,15.65v-2.15l-5.33,6.16,5.33,0V192.6C269.59,189,274.11,180.92,274.11,174.25Z"/><path class="cls-12" d="M263.3,172.35A11.77,11.77,0,0,0,258,181.6a6.94,6.94,0,0,0,5.32,7s5.33-6.89,5.33-13.08C268.63,172.06,266.25,170.66,263.3,172.35Zm-1.41,4.32-.12.19,0,0a8.36,8.36,0,0,0-.94,1.8,10.13,10.13,0,0,0-.58,2.05,9.81,9.81,0,0,0-.14,2,10.88,10.88,0,0,0,.23,1.85.33.33,0,0,1-.11.28c-.07.06-.15.06-.18,0a8.28,8.28,0,0,1-.56-1.68,9.45,9.45,0,0,1-.17-2.05,11.53,11.53,0,0,1,1.47-5.09c.3-.54.8-.83,1.11-.66S262.2,176.14,261.89,176.67Z"/><polygon class="cls-159" points="197.14 195.83 197.15 195.82 197.15 195.82 197.14 195.83"/><polygon class="cls-160" points="163.51 195.82 163.51 195.82 163.51 195.83 163.51 195.82"/><path class="cls-161" d="M180.33,202.46c-7.54,0-14-2.53-16.47-6.08l16.47,25.7,16.46-25.7C194.29,199.93,187.86,202.46,180.33,202.46Z"/><ellipse class="cls-162" cx="180.33" cy="193.08" rx="17.58" ry="9.38"/><path class="cls-12" d="M194.11,173.92a1.21,1.21,0,0,1-1.54,0c-2.62-2.74-6.85-2.85-11.33-.28s-8.71,7.54-11.32,13.29c-.61,1.33-1.78,2.24-2.64,2s-1-1.48-.44-2.81c3.33-7.31,8.71-13.63,14.4-16.9s11.08-3.14,14.4.35c.61.64.41,2.12-.43,3.32A3.67,3.67,0,0,1,194.11,173.92Z"/><path class="cls-12" d="M189.63,180.81a1.22,1.22,0,0,1-1.54,0c-1.59-1.66-4.14-1.73-6.85-.17a18,18,0,0,0-6.84,8c-.6,1.32-1.78,2.24-2.64,2s-1-1.47-.43-2.81c2.28-5,6-9.38,9.91-11.63s7.63-2.16,9.92.24c.61.63.41,2.12-.44,3.31A3.54,3.54,0,0,1,189.63,180.81Z"/><path class="cls-12" d="M186.52,188a1.21,1.21,0,0,1-1.54,0c-1.73-1.82-5.75.5-7.47,4.3-.61,1.33-1.79,2.23-2.64,2s-1.05-1.48-.44-2.81a17.91,17.91,0,0,1,6.81-8c2.7-1.55,5.24-1.49,6.82.16.6.64.41,2.12-.44,3.32A3.68,3.68,0,0,1,186.52,188Z"/><path class="cls-12" d="M183.69,192.24a5.39,5.39,0,0,1-2.45,4.24c-1.35.78-2.44.14-2.44-1.43a5.41,5.41,0,0,1,2.44-4.25C182.59,190,183.69,190.67,183.69,192.24Z"/><polygon class="cls-163" points="208.21 95.91 208.22 95.9 208.22 95.9 208.21 95.91"/><polygon class="cls-164" points="174.58 95.9 174.58 95.9 174.58 95.91 174.58 95.9"/><path class="cls-165" d="M191.4,102.54c-7.54,0-14-2.53-16.47-6.08l16.47,25.71,16.46-25.71C205.36,100,198.93,102.54,191.4,102.54Z"/><ellipse class="cls-166" cx="191.4" cy="93.16" rx="17.58" ry="9.38"/><path class="cls-12" d="M192.32,67.1l.26-.15c1.9-1.09,4.06-1.55,5.48-.91l-2.32,4.36a3.26,3.26,0,0,0-3.42.21v6.5l.12,0c3.13-.82,6.3-1.47,6.3,3,0,4.29-2.86,8.33-6.42,10.8v2.34l-1.51.86v-2.3c-2.43,1.43-4.81,2-6.52.85l2.55-4.48c.89.95,2.43.84,4,.12V81.39l-.14,0c-3.13.8-5.9,1-5.9-3.26,0-3.87,2.91-8,6-10.17V65.82l1.51-.87Zm-1.51,4.44a6.18,6.18,0,0,0-2.52,4.4c0,2,1.18,1.63,2.52,1.55Zm1.51,15.83c1.55-1.24,2.89-3.08,2.89-5s-1.57-1.57-2.89-1.33Z"/></g></g></g></svg>